<?xml version="1.0" encoding="utf-8"?>
<!-- Generator: Adobe Illustrator 24.2.0, SVG Export Plug-In . SVG Version: 6.00 Build 0)  -->
<svg version="1.1" id="图层_1" xmlns="http://www.w3.org/2000/svg" xmlns:xlink="http://www.w3.org/1999/xlink" x="0px" y="0px"
	 viewBox="0 0 700 700" style="enable-background:new 0 0 700 700;" xml:space="preserve">
<style type="text/css">
	.st0{fill:#F2F5FA;}
	.st1{opacity:0.75;}
	.st2{fill:none;stroke:#4055EC;stroke-width:0.9067;stroke-linecap:round;stroke-miterlimit:10;}
	.st3{fill:#4055EC;}
	.st4{fill:#C3D1FF;}
	.st5{fill:none;stroke:#F2F5FA;stroke-width:0.68;stroke-linecap:round;stroke-linejoin:round;stroke-miterlimit:10;}
	.st6{fill:#FFFFFF;}
	.st7{fill:none;stroke:#FFFFFF;stroke-width:1.36;stroke-miterlimit:10;}
	.st8{fill:#F4D3A6;}
	.st9{fill:#F88329;}
	.st10{opacity:0.67;}
	.st11{fill:#7789F2;}
	.st12{fill:none;stroke:#A9B6EA;stroke-width:1.1333;stroke-linecap:round;stroke-linejoin:round;stroke-miterlimit:10;}
	.st13{fill:none;stroke:#C3D1FF;stroke-width:0.68;stroke-miterlimit:10;}
	.st14{fill:#0600A0;}
	.st15{fill:none;stroke:#C3D1FF;stroke-width:1.1333;stroke-miterlimit:10;}
	.st16{fill:none;stroke:#F88329;stroke-width:0.4533;stroke-linejoin:round;stroke-miterlimit:10;}
	.st17{opacity:0.65;}
	.st18{fill:none;stroke:#C3D1FF;stroke-width:0.4533;stroke-miterlimit:10;}
	.st19{fill:none;stroke:#4055EC;stroke-width:0.9067;stroke-miterlimit:10;}
	.st20{filter:url(#Adobe_OpacityMaskFilter);}
	.st21{filter:url(#Adobe_OpacityMaskFilter_1_);}
	.st22{mask:url(#SVGID_1_);fill:url(#SVGID_2_);}
	.st23{fill:url(#SVGID_3_);}
	.st24{filter:url(#Adobe_OpacityMaskFilter_2_);}
	.st25{filter:url(#Adobe_OpacityMaskFilter_3_);}
	.st26{mask:url(#SVGID_4_);fill:url(#SVGID_5_);}
	.st27{fill:url(#SVGID_6_);}
	.st28{filter:url(#Adobe_OpacityMaskFilter_4_);}
	.st29{filter:url(#Adobe_OpacityMaskFilter_5_);}
	.st30{mask:url(#SVGID_7_);fill-rule:evenodd;clip-rule:evenodd;fill:url(#SVGID_8_);}
	.st31{opacity:0.67;fill-rule:evenodd;clip-rule:evenodd;fill:url(#SVGID_9_);}
	.st32{fill:#D3E0F1;}
	.st33{fill:#85A9FF;}
	.st34{fill:#E2EAF5;}
	.st35{fill:none;stroke:#D3E0F1;stroke-width:0.9067;stroke-linecap:round;stroke-linejoin:round;stroke-miterlimit:10;}
	.st36{fill:none;stroke:#000000;stroke-width:0.68;stroke-miterlimit:10;}
	.st37{fill:none;stroke:#D3E0F1;stroke-width:0.4533;stroke-linecap:round;stroke-linejoin:round;stroke-miterlimit:10;}
	.st38{fill:#9FC3FD;}
	.st39{fill:none;stroke:#0600A0;stroke-width:1.5867;stroke-linecap:round;stroke-miterlimit:10;}
	.st40{fill:none;stroke:#FFFFFF;stroke-width:0.68;stroke-linecap:round;stroke-linejoin:round;stroke-miterlimit:10;}
	.st41{opacity:0.49;fill:none;stroke:#000000;stroke-width:0.2267;stroke-miterlimit:10;}
	.st42{fill-rule:evenodd;clip-rule:evenodd;fill:#FF5500;}
	.st43{opacity:0.54;fill:#CC6600;}
	.st44{fill-rule:evenodd;clip-rule:evenodd;fill:#FFFFFF;}
	.st45{fill-rule:evenodd;clip-rule:evenodd;fill:#FF7206;}
	.st46{fill-rule:evenodd;clip-rule:evenodd;fill:#FDA118;}
	.st47{fill-rule:evenodd;clip-rule:evenodd;fill:#FFCAE1;}
	.st48{fill-rule:evenodd;clip-rule:evenodd;fill:#FDB2D0;}
	.st49{fill:#FDB2D0;}
	.st50{fill-rule:evenodd;clip-rule:evenodd;fill:#0600A0;}
	.st51{fill-rule:evenodd;clip-rule:evenodd;fill:#05007D;}
	.st52{fill:#FF5500;}
	.st53{fill:#FF7206;}
	.st54{opacity:0.14;fill-rule:evenodd;clip-rule:evenodd;fill:#0600A0;}
	.st55{fill-rule:evenodd;clip-rule:evenodd;fill:#4052F2;}
	.st56{fill-rule:evenodd;clip-rule:evenodd;fill:#9FC3FD;}
	.st57{filter:url(#Adobe_OpacityMaskFilter_6_);}
	.st58{filter:url(#Adobe_OpacityMaskFilter_7_);}
	.st59{mask:url(#SVGID_10_);fill-rule:evenodd;clip-rule:evenodd;fill:url(#SVGID_11_);}
	.st60{fill-rule:evenodd;clip-rule:evenodd;fill:url(#SVGID_12_);}
	.st61{fill-rule:evenodd;clip-rule:evenodd;fill:#342DEC;}
</style>
<g>
	<path class="st0" d="M165,549.5c-15.8-1.3-52.6-29.5-63.1-41.3c-20.3-22.9-38.5-48.3-51.6-76.1c-23.5-49.9-23.7-115.9,13-160.2
		c35.1-42.4,82.4-60.1,135.9-43.7c44.5,13.7,93.4,44.6,137.4,12.2c33.6-24.8,53.3-64.3,88.4-87.1c54.3-35.2,119.3-25.2,174.7,1.8
		c27.7,13.5,50.3,35.5,65.6,62.2c31.8,55.5,31.8,126.5,5.7,184.1C647.7,453,603.7,491.9,550.5,511c-47.8,17.2-105.3,32.5-151,39.2
		C399.5,550.2,165.2,549.5,165,549.5z"/>
	<g class="st1">
		<path class="st2" d="M425.3,482.3c-1.2-14.3-2.2-28.7-2.4-43.1c-0.4-39.4,6.8-81.1,32.6-111"/>
		<path class="st3" d="M463.7,307.9c1.6-1.1,3.5-2,5.3-1.3c1.8,0.7,2.5,2.9,2.2,4.8c-0.3,1.9-1.4,3.5-2.4,5.1
			c-2.2,3.2-15.7,24.9-18,13.1C449.3,322,458.1,311.7,463.7,307.9z"/>
		<path class="st3" d="M414.3,352c-1.1-1.5-2.2-3.3-2-5c0.3-1.7,1.9-2.6,3.5-2.3c1.6,0.2,3.1,1.2,4.6,2.2c3,2,23.1,14.3,13.8,16.9
			C428.3,365.4,418.4,357.3,414.3,352z"/>
		<path class="st3" d="M426.2,448.6c-1.3-0.9-2.7-2.2-2.9-3.7c-0.2-1.5,0.9-2.6,2.3-2.8c1.4-0.2,2.9,0.2,4.3,0.6
			c3,0.9,22.8,5.9,15.8,10.5C441.2,456.1,431,451.9,426.2,448.6z"/>
		<path class="st3" d="M403.2,431.4c-1.3-0.7-2.7-1.8-3.1-3.1c-0.4-1.4,0.6-2.5,1.8-2.9c1.2-0.4,2.7-0.1,4.1,0.1
			c2.9,0.5,21.8,3.1,15.8,8.1C418,436.8,408,434,403.2,431.4z"/>
		<path class="st3" d="M421.1,327c-1.1-3-1.5-6.9,1.1-8.7c1.6-1.1,3.9-0.9,5.6,0.1c1.7,0.9,3,2.5,4.3,4c4.7,5.5,9.4,11.1,12.3,17.8
			c3.5,8.3-9.2,2.4-11.9,0.6C427.4,337.5,423.2,332.7,421.1,327z"/>
		<path class="st3" d="M400.7,389.6c-2-2-3.7-5.1-2.2-7.5c0.9-1.5,2.8-2.1,4.6-2c1.7,0.1,3.4,0.9,5,1.7c5.8,2.8,11.7,5.6,16.5,10
			c5.9,5.5-6.6,5.3-9.5,4.8C409.7,395.8,404.6,393.4,400.7,389.6z"/>
		<path class="st3" d="M448.7,371.5c2.7,1,5.5,2,7.8,3.4c2.4,1.5,4.3,3.4,4.8,5.7c0.1,0.3,0.1,0.6,0,0.9c-0.3,0.6-1.1,0.8-1.9,0.9
			c-5.2,0.7-10.8-0.7-15.3-3.1c-4.5-2.4-8.1-5.8-10.9-9.4C428.1,363.4,446.4,370.7,448.7,371.5z"/>
		<path class="st3" d="M455.3,354.8c2.7,0.9,5.5,1.8,7.9,3.2c2.4,1.4,4.4,3.2,4.9,5.3c0.1,0.3,0.1,0.6,0,0.8
			c-0.3,0.5-1.1,0.7-1.9,0.8c-5.2,0.6-10.8-0.7-15.3-2.9c-4.5-2.2-8.1-5.4-11-8.7C434.7,347.3,453.1,354.1,455.3,354.8z"/>
		<path class="st3" d="M435.1,426.5c1.9,0.8,3.8,1.6,5.4,2.9c1.6,1.3,2.9,3,3.2,5.1c0,0.3,0.1,0.6,0,0.8c-0.2,0.5-0.8,0.7-1.3,0.8
			c-3.6,0.8-7.5-0.3-10.6-2.4c-3.1-2.1-5.5-5.1-7.4-8.3C420.9,419.7,433.5,425.8,435.1,426.5z"/>
		<path class="st3" d="M439,408.9c2.3,1.2,4.6,2.4,6.5,3.9c1.9,1.5,3.4,3.4,3.6,5.3c0,0.3,0,0.5-0.1,0.7c-0.3,0.4-1.1,0.5-1.8,0.4
			c-4.7-0.2-9.5-2.1-13.2-4.7c-3.7-2.6-6.5-5.9-8.6-9.2C421.8,399.4,437.2,407.9,439,408.9z"/>
		<path class="st3" d="M430.5,375.9c-2.7-4.4-7.2-7.6-12.2-8.7c-1.7-0.4-3.6-0.5-5.2,0.2c-1.6,0.7-2.9,2.3-2.8,4.1
			c0.3,2.4,2.9,3.7,5.2,4.4c3.4,1,7,1.6,10.6,1.7c1.1,0,2.2,0,3.1-0.5c0.9-0.6,1.5-1.9,0.8-2.7"/>
		<path class="st3" d="M422.9,415.1c-2.7-4.4-7.2-7.6-12.2-8.7c-1.7-0.4-3.6-0.5-5.2,0.2c-1.6,0.7-2.9,2.3-2.8,4.1
			c0.3,2.4,2.9,3.7,5.2,4.4c3.4,1,7,1.6,10.6,1.7c1.1,0,2.2,0,3.1-0.5c0.9-0.6,1.5-1.9,0.8-2.7"/>
		<path class="st3" d="M453.7,393.2c1.2,0.8,2.6,1.9,2.4,3.3c-0.1,1.5-1.8,2.4-3.4,2.6c-4,0.5-7.7-1.7-11.1-3.7
			c-3.7-2.3-7.5-4.5-11.2-6.8c-4.8-3-1.7-3.8,2.4-3.3C440.2,386.4,447.4,389.2,453.7,393.2z"/>
	</g>
	<g>
		<path class="st4" d="M473.6,449.6c5.9-2.8,12-6.1,15.6-11.6c3.5-5.5,3.3-14-2.1-17.7c-2.5-1.7-5.8-2.2-8-4.6
			c-0.9-1.1-1.4-2.5-1.1-3.9c0.5-2,2.1-2.5,3.7-2.9c7.8-2.1,15.7-4.2,23.5-6.4c7.9-2.1,16.5-4.7,21.4-11.3c1.2-1.6,2.2-3.6,2.2-5.6
			c0.1-1.8-0.5-3.3-1.3-4.8c-4.1-7-2.4-15.9,4.2-20.8c5.4-4,10.7-8.3,15.7-12.9c0.8-0.8,1.7-1.6,2-2.7c0.4-1.3-0.1-2.8-0.9-3.9
			c-3.8-5.1-11.8-3.7-17.4-0.7c-5.6,3-11.5,7.2-17.7,5.8c-3.8-0.9-6.8-3.6-10-5.8c-5.8-3.8-13.5-5.6-19.6-2.3
			c-13.2,7.2-8.3,30.5-21.2,38.4c-9.4,5.8-26.1-6.1-36.4-2c-9.3,3.7-15.7,21-18.7,30.6c-3.2,10.5-16.6,61.2-4,66.9
			c8,3.6,27.1-5.3,35-7.9C450.5,459.7,462.3,455,473.6,449.6z"/>
		<path class="st5" d="M545.3,340.5C469.5,383.3,411.7,444.3,367.5,519"/>
		<path class="st5" d="M460.8,440.8c-0.9-0.7-2.1-0.6-3.2-0.5c-17.9,2-35.2,8.7-49.8,19.1"/>
	</g>
	<path class="st4" d="M316.1,543.7c-0.3,0.5-0.6,0.9-1,1.3c-2.2,2.8-5.3,4.7-8.6,6.1c0,0,0,0,0,0c-0.3,0.1-0.6,0.3-0.9,0.4H75.7
		c-1.4-5-1.6-10.2,1.3-14.7c3-4.6,8.4-7.1,13.8-8.5c5.3-1.4,10.9-2,16.1-3.9c1.6-0.6,3.1-1.3,4.1-2.6c3-4-2.9-9.4-5.3-12.1
		c-2.7-3-5.5-6-7.4-9.6c-6.1-11.5,1.8-24.5,13.6-28c4.3-1.2,8.6-1.6,12.9-0.1c5,1.7,7.5,6.9,13.5,5.4c5.2-1.3,7.7-6.6,7.6-11.6
		c-0.1-4.5-1.1-9.1-2.4-13.4c-6-20.4,7.7-35.7,32.4-34.8c7.3,0.3,14.8,1.5,22.1,3.4c6,1.6,11.8,3.8,17.2,6.4
		c0.2,0.1,0.5,0.2,0.7,0.4c9.6,4.8,20.6,1.5,30.6,4.9c6.7,2.3,12.4,8.7,14.3,15.4c0.2,0.8,0.4,1.5,0.5,2.3c0,0,0,0,0,0
		c0.5,3.6-0.1,7.3-1.9,10.3c-0.3,0.5-0.7,1.1-1.1,1.5c-0.5,0.6-1,1.2-1.6,1.7c-4.1,3.7-9.9,5-14.5,8c-1.9,1.3-3.6,2.9-4.8,4.7
		c-2.1,3.1-3,6.9-2.2,11c0.3,1.6,0.9,2.9,1.6,4.1c0,0,0,0,0,0c4.3,6.4,14.7,6.5,21.8,6.4c4.1,0,8.3-0.3,12.5-0.5
		c8.4-0.3,17-0.3,24.7,3c2.8,1.2,5.4,2.7,7.8,4.6c0,0,0,0,0.1,0.1c4.4,3.4,8.1,7.9,10.8,12.8c0.3,0.5,0.6,1.1,0.8,1.7
		c1.2,2.4,2.2,5,2.8,7.8C319.3,533.2,319.2,539,316.1,543.7z"/>
	<path class="st6" d="M350.5,544.6c-0.3,0.4-0.6,0.8-0.9,1.2c-2,2.5-4.7,4.2-7.7,5.5c0,0,0,0,0,0c-0.3,0.1-0.6,0.2-0.8,0.4H135.6
		c-1.3-4.4-1.5-9.1,1.2-13.1c2.7-4.1,7.5-6.3,12.3-7.6c4.8-1.3,9.7-1.8,14.4-3.5c1.4-0.5,2.8-1.2,3.7-2.3c2.7-3.5-2.6-8.4-4.7-10.8
		c-2.4-2.7-4.9-5.4-6.6-8.6c-5.4-10.3,1.6-21.9,12.2-25c3.8-1.1,7.7-1.4,11.5-0.1c4.4,1.5,6.7,6.2,12.1,4.8
		c4.7-1.1,6.9-5.9,6.8-10.4c-0.1-4-1-8.1-2.2-12c-5.4-18.2,6.9-31.9,28.9-31.1c6.5,0.3,13.2,1.3,19.8,3.1c5.4,1.4,10.6,3.4,15.4,5.7
		c0.2,0.1,0.4,0.2,0.7,0.3c8.6,4.3,18.5,1.3,27.4,4.4c6,2.1,11.1,7.7,12.8,13.8c0.2,0.7,0.3,1.4,0.4,2.1c0,0,0,0,0,0
		c0.4,3.2-0.1,6.5-1.7,9.2c-0.3,0.5-0.6,0.9-1,1.4c-0.5,0.5-0.9,1.1-1.5,1.5c-3.7,3.3-8.9,4.5-13,7.2c-1.7,1.1-3.2,2.6-4.3,4.2
		c-1.9,2.8-2.7,6.2-2,9.8c0.3,1.4,0.8,2.6,1.5,3.6c0,0,0,0,0,0c3.8,5.7,13.2,5.8,19.5,5.7c3.6,0,7.4-0.3,11.2-0.4
		c7.6-0.3,15.2-0.2,22,2.7c2.5,1.1,4.8,2.4,6.9,4.1c0,0,0,0,0.1,0c4,3.1,7.3,7,9.6,11.4c0.3,0.5,0.5,1,0.8,1.5
		c1,2.1,1.9,4.5,2.5,6.9C353.4,535.2,353.3,540.4,350.5,544.6z"/>
	<g>
		<g>
			<path class="st7" d="M278.8,529.1c0,0-56-56.5-84.8-72.6"/>
			<path class="st7" d="M252.4,503.7c0,0-22.2,7.6-48.7,10.1c-23.5,2.2-50.3,0.3-68-14.6"/>
			<path class="st7" d="M105.9,539.7c0,0,69.8,3.9,98.1-24.9"/>
		</g>
	</g>
	<path class="st4" d="M469.1,542.6c0.2,0.4,0.4,0.8,0.7,1.2c1.6,2.5,3.7,4.2,6.1,5.5c0.2,0.1,0.4,0.2,0.7,0.4h162.1
		c1-4.4,1.2-9.1-0.9-13.2c-4.7-9.1-19.9-5.3-23.3-14.8c-1.2-3.3,0.2-6.9,1.7-10c2.1-4.2,4.5-8.3,5.8-12.7c1.7-6,0-15.2-5.4-18.9
		c-8.1-5.6-12.7,4.6-20.4,3.2c-2.5-0.5-4.4-2.5-5.3-4.9c-4.6-11.2,3.6-23.4-0.4-34.7c-3.4-9.4-12.7-14.4-22.4-13.9
		c-5.1,0.3-10.4,1.3-15.6,3.1c-4.2,1.5-8.3,3.4-12.1,5.7c-0.2,0.1-0.4,0.2-0.5,0.3c-6.8,4.3-14.6,1.3-21.6,4.4
		c-4.7,2.1-8.8,7.8-10.1,13.9c-0.2,0.7-0.3,1.4-0.3,2.1c-0.3,3.2,0.1,6.5,1.4,9.2c0.2,0.5,0.5,0.9,0.8,1.4c0.4,0.6,0.7,1.1,1.1,1.5
		c2.9,3.3,7,4.5,10.2,7.2c1.4,1.2,2.5,2.6,3.4,4.2c1.5,2.8,2.1,6.2,1.6,9.9c-0.2,1.4-0.6,2.6-1.2,3.6c-3,5.7-10.4,5.8-15.4,5.8
		c-2.9,0-5.8-0.3-8.8-0.4c-6-0.3-12-0.2-17.4,2.7c-2,1.1-3.8,2.4-5.5,4.1c0,0,0,0-0.1,0c-3.1,3.1-5.7,7-7.6,11.5
		c-0.2,0.5-0.4,1-0.6,1.5c-0.8,2.2-1.5,4.5-2,7C466.9,533.2,466.9,538.4,469.1,542.6z"/>
	<g class="st1">
		<path class="st2" d="M583.9,549.7c2.1-5.5,3.1-3.9,5.6-9.2c6.8-14.7,16.9-28.9,31.7-35.4"/>
		<path class="st3" d="M627.8,499c0.8-0.1,1.7-0.1,2.2,0.5c0.5,0.6,0.4,1.5,0,2.2c-0.4,0.6-1.1,1.1-1.8,1.5c-1.4,0.8-10.2,6.5-9,1.7
			C620,501.6,625,499.4,627.8,499z"/>
		<path class="st3" d="M601.7,506.6c-0.2-0.7-0.2-1.6,0.2-2.2c0.4-0.6,1.2-0.6,1.7-0.3c0.5,0.4,0.9,1,1.3,1.6c0.8,1.3,6,9.4,2.1,8.7
			C604.5,514,602.3,509.2,601.7,506.6z"/>
		<path class="st3" d="M589.1,544.5c-0.3-0.6-0.6-1.3-0.4-1.9c0.2-0.6,0.8-0.8,1.4-0.6c0.5,0.2,1,0.6,1.5,1c1,0.9,7.4,6.2,4,6.7
			C593.3,549.9,590.2,546.6,589.1,544.5z"/>
		<path class="st3" d="M583.6,534c-0.4-0.5-0.7-1.1-0.6-1.7c0.1-0.6,0.7-0.8,1.2-0.7c0.5,0.1,1,0.4,1.5,0.8c1,0.7,7.5,5,4.4,5.8
			C588.1,538.7,584.9,535.9,583.6,534z"/>
		<path class="st3" d="M608.6,498.5c0.1-1.3,0.7-2.8,2-3c0.8-0.1,1.6,0.4,2.1,1c0.5,0.7,0.7,1.5,0.9,2.2c0.8,2.9,1.5,5.8,1.4,8.8
			c-0.2,3.7-3.8-0.7-4.5-1.9C609.1,503.5,608.4,501,608.6,498.5z"/>
		<path class="st3" d="M590,518.1c-0.4-1.1-0.5-2.5,0.5-3.2c0.6-0.4,1.4-0.3,2.1,0.1c0.6,0.4,1.1,0.9,1.5,1.5
			c1.7,2.1,3.4,4.1,4.3,6.6c1.2,3.1-3.4,0.8-4.4,0.1C592.3,522,590.8,520.2,590,518.1z"/>
		<path class="st3" d="M611,519.9c0.8,0.8,1.7,1.7,2.3,2.6c0.6,1,1,2,0.8,3c0,0.1-0.1,0.2-0.2,0.3c-0.2,0.2-0.5,0.1-0.8,0
			c-2-0.7-3.9-2.2-5.1-3.9c-1.2-1.7-2-3.6-2.4-5.4C604.8,513.3,610.3,519.2,611,519.9z"/>
		<path class="st3" d="M616.4,514.9c0.9,0.8,1.7,1.6,2.4,2.6c0.6,0.9,1,2,0.9,2.8c0,0.1-0.1,0.2-0.1,0.3c-0.2,0.1-0.5,0.1-0.8,0
			c-2-0.7-3.9-2.2-5.2-3.8c-1.3-1.6-2.1-3.4-2.5-5.2C610.1,508.4,615.7,514.2,616.4,514.9z"/>
		<path class="st3" d="M596.2,537.9c0.6,0.6,1.1,1.3,1.5,2c0.4,0.8,0.5,1.6,0.3,2.4c0,0.1-0.1,0.2-0.2,0.3c-0.2,0.2-0.4,0.1-0.6,0.1
			c-1.5-0.4-2.7-1.4-3.5-2.8c-0.8-1.3-1.1-2.9-1.3-4.4C592.2,532.8,595.8,537.3,596.2,537.9z"/>
		<path class="st3" d="M600.8,532c0.6,0.8,1.3,1.7,1.7,2.6c0.4,0.9,0.7,1.9,0.4,2.6c0,0.1-0.1,0.2-0.2,0.2c-0.2,0.1-0.5,0-0.7-0.1
			c-1.7-0.9-3.1-2.4-4.1-4.1c-0.9-1.6-1.4-3.3-1.6-4.9C596.1,525.5,600.3,531.3,600.8,532z"/>
		<path class="st3" d="M603.5,518.3c-0.2-2.1-1.3-4.1-3-5.4c-0.6-0.4-1.2-0.8-2-0.9c-0.7,0-1.5,0.3-1.7,1c-0.3,0.9,0.4,1.9,1.2,2.5
			c1.1,1,2.3,1.8,3.6,2.5c0.4,0.2,0.8,0.4,1.2,0.4c0.4,0,0.9-0.4,0.8-0.9"/>
		<path class="st3" d="M593.7,531.5c-0.2-2.1-1.3-4.1-3-5.4c-0.6-0.4-1.2-0.8-2-0.9c-0.7,0-1.5,0.3-1.7,1c-0.3,0.9,0.4,1.9,1.2,2.5
			c1.1,1,2.3,1.8,3.6,2.5c0.4,0.2,0.8,0.4,1.2,0.4s0.9-0.4,0.8-0.9"/>
		<path class="st3" d="M609,528.8c0.3,0.5,0.6,1.2,0.3,1.7c-0.3,0.5-1.1,0.6-1.7,0.4c-1.6-0.5-2.6-2-3.5-3.3c-1-1.5-2-3-2.9-4.5
			c-1.2-2,0-1.7,1.5-0.8C605.2,523.9,607.4,526.2,609,528.8z"/>
	</g>
	<path class="st6" d="M467.6,544.3c0.2,0.3,0.4,0.7,0.6,1c1.4,2.1,3.2,3.6,5.2,4.7c0.2,0.1,0.4,0.2,0.6,0.3h139
		c0.9-3.8,1-7.8-0.8-11.3c-4-7.8-17.1-4.5-20-12.7c-1-2.8,0.1-5.9,1.5-8.6c1.8-3.6,3.9-7.1,5-10.9c1.5-5.2,0-13-4.6-16.2
		c-6.9-4.8-10.9,4-17.5,2.7c-2.1-0.4-3.8-2.2-4.6-4.2c-3.9-9.6,3.1-20.1-0.4-29.8c-2.9-8-10.9-12.4-19.2-11.9
		c-4.4,0.2-9,1.1-13.4,2.6c-3.6,1.2-7.1,2.9-10.4,4.9c-0.2,0.1-0.3,0.2-0.4,0.3c-5.8,3.7-12.5,1.1-18.5,3.8c-4,1.8-7.5,6.7-8.7,11.9
		c-0.1,0.6-0.2,1.2-0.3,1.8c-0.3,2.7,0.1,5.6,1.2,7.9c0.2,0.4,0.4,0.8,0.7,1.2c0.3,0.5,0.6,0.9,1,1.3c2.5,2.8,6,3.9,8.8,6.2
		c1.2,1,2.2,2.2,2.9,3.6c1.3,2.4,1.8,5.3,1.3,8.5c-0.2,1.2-0.5,2.2-1,3.1c-2.6,4.9-8.9,5-13.2,4.9c-2.5,0-5-0.2-7.6-0.4
		c-5.1-0.3-10.3-0.2-14.9,2.3c-1.7,0.9-3.3,2.1-4.7,3.5c0,0,0,0,0,0c-2.7,2.6-4.9,6-6.5,9.8c-0.2,0.4-0.3,0.8-0.5,1.3
		c-0.7,1.8-1.3,3.9-1.7,6C465.7,536.2,465.8,540.7,467.6,544.3z"/>
	<g>
		<path class="st8" d="M262.9,422.8H92.6c-1.6,0-3-1.3-3-3v-35.7c0-1.6,1.3-3,3-3h170.3c1.6,0,3,1.3,3,3v35.7
			C265.9,421.4,264.6,422.8,262.9,422.8z"/>
		<g>
			<g>
				<polygon class="st9" points="121.8,390.1 125.7,397.9 134.3,399.1 128,405.2 129.5,413.8 121.8,409.7 114.1,413.8 115.6,405.2 
					109.3,399.1 118,397.9 				"/>
				<polygon class="st9" points="149.8,390.1 153.6,397.9 162.3,399.1 156,405.2 157.5,413.8 149.8,409.7 142.1,413.8 143.6,405.2 
					137.3,399.1 145.9,397.9 				"/>
				<polygon class="st9" points="177.8,390.1 181.6,397.9 190.2,399.1 184,405.2 185.5,413.8 177.8,409.7 170.1,413.8 171.6,405.2 
					165.3,399.1 173.9,397.9 				"/>
				<polygon class="st9" points="205.8,390.1 209.6,397.9 218.2,399.1 212,405.2 213.5,413.8 205.8,409.7 198.1,413.8 199.5,405.2 
					193.3,399.1 201.9,397.9 				"/>
				<polygon class="st9" points="233.8,390.1 237.6,397.9 246.2,399.1 240,405.2 241.5,413.8 233.8,409.7 226.1,413.8 227.5,405.2 
					221.3,399.1 229.9,397.9 				"/>
			</g>
		</g>
	</g>
	<g>
		<g class="st10">
			<g>
				<path class="st11" d="M307.3,535l-46.5,16.5h-42.9c-0.2-0.5-0.4-1-0.6-1.5l-37.2-104.3l-2.5-7.1l-22.2-62.3
					c-3-8.3,1.4-17.5,9.8-20.5l59.8-21.3l9.7-3.5c3.5-1.3,7.2-1.2,10.5-0.1c2.1,0.7,4.1,1.9,5.8,3.4c1.9,1.7,3.4,3.9,4.3,6.4
					l0.9,2.6l61,171.1C320,522.9,315.7,532.1,307.3,535z"/>
			</g>
		</g>
		<g>
			<g>
				<path class="st6" d="M304.7,527.9L238,551.6h-12.3c-2.1-1.3-3.9-3.3-4.8-5.8l-60.4-169.6c-2.1-5.8,1-12.3,6.8-14.3l11.8-4.2
					l4.7-1.7c1.8-0.6,37.5-13.4,39.3-14l13.5-4.8c5.9-2.1,12.3,1,14.4,6.8l60.4,169.6C313.6,519.3,310.5,525.8,304.7,527.9z"/>
			</g>
		</g>
	</g>
	<g>
		<g>
			
				<rect x="207.4" y="465" transform="matrix(0.9406 -0.3396 0.3396 0.9406 -144.2394 110.5581)" class="st12" width="72.8" height="4.9"/>
		</g>
	</g>
	<g>
		<g>
			<g>
				<path class="st12" d="M281.3,471.7c0.1,0.2-14.5,5.6-32.5,12.1c-18,6.5-32.7,11.7-32.8,11.5c-0.1-0.2,14.5-5.6,32.6-12.1
					C266.5,476.7,281.2,471.5,281.3,471.7z"/>
			</g>
		</g>
	</g>
	<g>
		<g>
			<path class="st13" d="M242,363c0.1,0.2-14.5,5.6-32.5,12.1c-18,6.5-32.7,11.7-32.8,11.5c-0.1-0.2,14.5-5.6,32.6-12.1
				C227.3,368,242,362.8,242,363z"/>
		</g>
	</g>
	<g>
		<g>
			<g>
				<path class="st12" d="M284.3,480c0.1,0.2-14.5,5.6-32.5,12.1c-18,6.5-32.7,11.7-32.8,11.5c-0.1-0.2,14.5-5.6,32.6-12.1
					C269.6,485,284.2,479.9,284.3,480z"/>
			</g>
		</g>
	</g>
	<g>
		<g>
			<g>
				<path class="st12" d="M287.3,488.4c0.1,0.2-14.5,5.6-32.6,12.1c-18,6.5-32.7,11.7-32.8,11.5c-0.1-0.2,14.5-5.6,32.6-12.1
					C272.6,493.4,287.2,488.2,287.3,488.4z"/>
			</g>
		</g>
	</g>
	<g>
		<g>
			<g>
				<path class="st12" d="M290.3,496.7c0.1,0.2-14.5,5.6-32.5,12.1c-18,6.5-32.7,11.7-32.8,11.5c-0.1-0.2,14.5-5.6,32.6-12.1
					C275.6,501.7,290.3,496.5,290.3,496.7z"/>
			</g>
		</g>
	</g>
	<g>
		<g>
			<g>
				<path class="st12" d="M293.3,505.1c0.1,0.2-14.5,5.6-32.5,12.1c-18,6.5-32.7,11.7-32.8,11.5c-0.1-0.2,14.5-5.6,32.6-12.1
					C278.6,510,293.3,504.9,293.3,505.1z"/>
			</g>
		</g>
	</g>
	<g>
		<g>
			<g>
				<path class="st12" d="M297.7,514.2c0.1,0.2-14.5,5.6-32.5,12.1c-18,6.5-32.7,11.7-32.8,11.5c-0.1-0.2,14.5-5.6,32.6-12.1
					C282.9,519.2,297.6,514,297.7,514.2z"/>
			</g>
		</g>
	</g>
	<g>
		<g>
			<path class="st11" d="M603.5,441l-2.4,8.7l-4.3,15.8L574,550.2H412.6l-66.4-17.9c-2.3-0.6-3.7-3-3.1-5.3l39.3-145.6
				c0.6-2.3,3-3.7,5.3-3.1l174,47l31.1,8.4l7.6,2C602.8,436.3,604.2,438.7,603.5,441z"/>
		</g>
		<g>
			<polygon class="st6" points="582,435.9 551.2,550.2 431.9,550.2 358.5,530.4 397.4,386.1 			"/>
		</g>
		<g>
			<path class="st3" d="M574.4,504.9c3.3,0.9,5.2,4.2,4.3,7.5c-0.9,3.3-4.2,5.2-7.5,4.3c-3.3-0.9-5.2-4.2-4.3-7.5
				C567.7,506,571.1,504.1,574.4,504.9z"/>
		</g>
		<g>
			<g>
				<path class="st14" d="M377.9,433.5l-12.5,46.2c-0.1,0-0.1,0.1-0.1,0.1l-2.2-0.6c0-0.1-0.1-0.1-0.1-0.1l12.5-46.2
					c0.1,0,0.1-0.1,0.1-0.1l2.2,0.6C377.8,433.4,377.8,433.4,377.9,433.5z"/>
			</g>
		</g>
		<g>
			
				<rect x="477.1" y="427.5" transform="matrix(0.9654 0.2607 -0.2607 0.9654 129.5142 -117.4399)" class="st4" width="60.8" height="4.1"/>
		</g>
		<g>
			
				<rect x="382.4" y="474.4" transform="matrix(0.9654 0.2607 -0.2607 0.9654 138.4581 -91.1373)" class="st4" width="60.8" height="4.1"/>
		</g>
		<g>
			<g>
				<path class="st15" d="M540.8,479.7c0,0.1-16.4-4.2-36.6-9.6c-20.2-5.4-36.5-10-36.4-10.1c0-0.1,16.4,4.2,36.6,9.6
					C524.5,475.1,540.8,479.6,540.8,479.7z"/>
			</g>
		</g>
		<g>
			<g>
				<path class="st15" d="M538.5,488.3c0,0.1-16.4-4.2-36.6-9.6c-20.2-5.4-36.5-10-36.4-10.1c0-0.1,16.4,4.2,36.6,9.6
					C522.2,483.6,538.5,488.2,538.5,488.3z"/>
			</g>
		</g>
		<g>
			<g>
				<path class="st15" d="M520.2,492.6c0,0.1-12.8-3.2-28.6-7.4c-15.7-4.3-28.5-7.8-28.4-8c0-0.1,12.8,3.2,28.6,7.4
					C507.5,488.9,520.2,492.4,520.2,492.6z"/>
			</g>
		</g>
		<g>
			<g>
				<path class="st15" d="M476.2,508c0,0.1-21.5-5.5-48-12.7c-26.5-7.1-47.9-13-47.8-13.2c0-0.1,21.5,5.5,48,12.7
					C454.9,502,476.3,507.9,476.2,508z"/>
			</g>
		</g>
		<g>
			<g>
				<path class="st15" d="M474.3,515.2c0,0.1-21.5-5.5-48-12.7c-26.5-7.1-47.9-13-47.8-13.2c0-0.1,21.5,5.5,48,12.7
					C452.9,509.1,474.4,515,474.3,515.2z"/>
			</g>
		</g>
		<g>
			<g>
				<path class="st15" d="M472.4,522.3c0,0.1-21.5-5.5-48-12.7c-26.5-7.1-47.9-13-47.8-13.2c0-0.1,21.5,5.5,48,12.7
					C451,516.3,472.4,522.2,472.4,522.3z"/>
			</g>
		</g>
		<g>
			<g>
				<path class="st15" d="M470.5,529.5c0,0.1-21.5-5.5-48-12.7c-26.5-7.1-47.9-13-47.8-13.2c0-0.1,21.5,5.5,48,12.7
					C449.1,523.4,470.5,529.3,470.5,529.5z"/>
			</g>
		</g>
		<g>
			<g>
				<path class="st15" d="M468.5,536.6c0,0.1-21.5-5.5-48-12.7c-26.5-7.1-47.9-13-47.8-13.2c0-0.1,21.5,5.5,48,12.7
					C447.2,530.6,468.6,536.5,468.5,536.6z"/>
			</g>
		</g>
		<polygon class="st9" points="477.1,443.3 477.9,447.4 481.7,448.9 478.1,451 477.8,455.1 474.8,452.3 470.8,453.2 472.5,449.5 
			470.3,446 474.4,446.4 		"/>
		<polygon class="st9" points="489.8,446.7 490.7,450.7 494.4,452.3 490.9,454.3 490.5,458.4 487.5,455.6 483.5,456.6 485.2,452.8 
			483.1,449.3 487.2,449.8 		"/>
		<polygon class="st9" points="502.6,450 503.4,454 507.2,455.6 503.6,457.6 503.3,461.7 500.3,458.9 496.3,459.9 498,456.1 
			495.8,452.6 499.9,453.1 		"/>
		<polygon class="st16" points="515.4,453.3 516.2,457.3 520,458.9 516.4,460.9 516.1,465 513,462.3 509,463.2 510.7,459.5 
			508.6,455.9 512.7,456.4 		"/>
		<polygon class="st16" points="528.1,456.6 528.9,460.6 532.7,462.2 529.2,464.2 528.8,468.3 525.8,465.6 521.8,466.5 523.5,462.8 
			521.4,459.3 525.4,459.7 		"/>
	</g>
	<g class="st17">
		<polygon class="st9" points="185.3,390.7 188,393.3 191.6,392.6 190,395.9 191.8,399.2 188.1,398.7 185.6,401.4 184.9,397.7 
			181.6,396.2 184.9,394.4 		"/>
		<polygon class="st9" points="196.6,386.7 199.3,389.3 203,388.6 201.3,391.9 203.1,395.2 199.4,394.6 196.9,397.4 196.3,393.7 
			192.9,392.1 196.2,390.4 		"/>
		<polygon class="st9" points="207.9,382.6 210.6,385.3 214.3,384.5 212.6,387.9 214.5,391.1 210.8,390.6 208.2,393.3 207.6,389.7 
			204.2,388.1 207.5,386.4 		"/>
		<polygon class="st9" points="219.3,378.6 222,381.2 225.6,380.5 224,383.8 225.8,387.1 222.1,386.6 219.6,389.3 218.9,385.6 
			215.5,384.1 218.8,382.3 		"/>
		<polygon class="st16" points="230.6,374.6 233.3,377.2 237,376.4 235.3,379.8 237.1,383.1 233.4,382.5 230.9,385.3 230.3,381.6 
			226.9,380 230.2,378.3 		"/>
	</g>
	<g>
		<g>
			<path class="st18" d="M253.5,391.9c0,0.1-14.4,5.6-32.3,12.1c-17.9,6.6-32.4,11.8-32.5,11.7c0-0.1,14.4-5.6,32.3-12.1
				C239,397,253.5,391.8,253.5,391.9z"/>
		</g>
	</g>
	<g>
		<g>
			<g>
				<path class="st18" d="M251.1,384.3c0,0.1-14.4,5.6-32.3,12.1c-17.9,6.6-32.4,11.8-32.5,11.7c0-0.1,14.4-5.6,32.3-12.1
					C236.5,389.4,251.1,384.2,251.1,384.3z"/>
			</g>
		</g>
		<g>
			<g>
				<path class="st18" d="M242.5,404.7c0,0.1-11.2,4.4-25.2,9.5c-14,5.1-25.3,9.2-25.4,9.1c0-0.1,11.2-4.4,25.2-9.5
					C231.1,408.6,242.5,404.6,242.5,404.7z"/>
			</g>
		</g>
	</g>
	<g>
		<path class="st19" d="M266.9,561.3c-6.8-10.4-13.8-20.8-21.3-30.7c-20.7-27.2-47.9-51.9-81.4-58.7"/>
		<path class="st3" d="M147.8,462.4c-1.6,0.1-3.5,0.5-4.3,1.9c-0.8,1.4-0.2,3.3,1,4.5c1.2,1.1,2.8,1.7,4.4,2.2
			c3.2,1,24,8.7,19.3-0.6C165.2,464.4,153.7,462,147.8,462.4z"/>
		<path class="st3" d="M205.1,466.2c0-1.6-0.2-3.5-1.3-4.5c-1.1-1-2.7-0.7-3.6,0.3c-1,1-1.5,2.5-2,3.9c-1,3-8.2,22.1-0.5,19
			C202.6,482.9,205.1,472,205.1,466.2z"/>
		<path class="st3" d="M248.3,538.7c0.4-1.3,0.7-2.9,0-4.1c-0.7-1.1-2-1.3-3.1-0.7c-1.1,0.6-1.9,1.7-2.6,2.7
			c-1.6,2.2-12.4,16.2-5.2,15.6C242,551.9,246.8,543.5,248.3,538.7z"/>
		<path class="st3" d="M254.9,514.7c0.5-1.2,0.9-2.7,0.5-3.8c-0.5-1.1-1.8-1.4-2.8-1c-1,0.4-1.9,1.4-2.7,2.3
			c-1.7,1.9-13.3,13.8-6.5,13.9C247.7,526.3,253,519,254.9,514.7z"/>
		<path class="st3" d="M187.1,452.8c-0.8-2.6-2.7-5.5-5.4-5.3c-1.7,0.1-3.1,1.5-3.8,3c-0.7,1.6-0.8,3.3-0.8,5
			c-0.3,6.3-0.5,12.6,1.1,18.7c2,7.6,7.5-3.3,8.5-6C188.4,463.3,188.7,457.8,187.1,452.8z"/>
		<path class="st3" d="M234.4,484.8c0.3-2.4-0.2-5.5-2.5-6.3c-1.4-0.5-3.1,0.1-4.2,1.1c-1.1,1-1.8,2.4-2.5,3.8
			c-2.5,5-5.1,10.1-5.9,15.6c-1.1,6.9,7.3,0.1,9.1-1.7C231.5,493.8,233.8,489.4,234.4,484.8z"/>
		<path class="st3" d="M191.9,497.9c-1.3,2.1-2.7,4.3-3.5,6.5c-0.8,2.2-1.1,4.6-0.3,6.5c0.1,0.2,0.2,0.5,0.5,0.6
			c0.5,0.2,1.2-0.1,1.7-0.4c3.9-2.3,7-6.2,8.8-10.3c1.8-4.1,2.4-8.3,2.4-12.2C201.7,481.5,193,496.2,191.9,497.9z"/>
		<path class="st3" d="M178.5,490c-1.4,2.1-2.8,4.2-3.7,6.4c-0.9,2.2-1.3,4.5-0.6,6.2c0.1,0.2,0.2,0.4,0.4,0.6
			c0.4,0.2,1.1-0.1,1.7-0.5c3.9-2.4,7-6.2,8.9-10.2c1.9-4,2.7-8,2.9-11.8C188.6,473.9,179.6,488.4,178.5,490z"/>
		<path class="st3" d="M230.5,528.3c-0.9,1.5-1.7,3.1-2.1,4.8c-0.4,1.7-0.4,3.6,0.5,5.2c0.1,0.2,0.3,0.4,0.5,0.5
			c0.4,0.2,0.9,0.1,1.4-0.1c2.9-1.4,5-4.2,6-7.3c1-3.1,1-6.4,0.6-9.6C236.5,516.1,231.2,527,230.5,528.3z"/>
		<path class="st3" d="M218.4,518.4c-1,2-1.9,4.1-2.4,6.1c-0.5,2.1-0.5,4.2,0.3,5.6c0.1,0.2,0.3,0.4,0.5,0.4c0.4,0.1,1-0.3,1.4-0.6
			c3.1-2.6,5.4-6.4,6.6-10.2c1.2-3.8,1.3-7.5,1-10.9C225.1,502.7,219.2,516.7,218.4,518.4z"/>
		<path class="st3" d="M206.7,491.3c-0.5-4.4,0.9-9,3.7-12.4c1-1.2,2.2-2.3,3.7-2.7c1.5-0.4,3.3,0,4.1,1.3c1.1,1.8,0,4.1-1.3,5.8
			c-1.8,2.5-4,4.8-6.3,6.8c-0.7,0.6-1.5,1.2-2.4,1.3c-0.9,0.1-2-0.5-2-1.4"/>
		<path class="st3" d="M232.8,514c-0.5-4.4,0.9-9,3.7-12.4c1-1.2,2.2-2.3,3.7-2.7c1.5-0.4,3.3,0,4.1,1.3c1.1,1.8,0,4.1-1.3,5.8
			c-1.8,2.5-4,4.8-6.3,6.8c-0.7,0.6-1.5,1.2-2.4,1.3c-0.9,0.1-2-0.5-2-1.4"/>
		<path class="st3" d="M200,515.5c-0.4,1.2-0.7,2.7,0.1,3.6c0.9,1,2.5,0.7,3.7,0c3-1.8,4.4-5.2,5.6-8.5c1.3-3.5,2.7-7.1,4-10.6
			c1.7-4.6-0.9-3.5-3.4-0.9C205.6,503.7,202.2,509.4,200,515.5z"/>
	</g>
	<g>
		<defs>
			<filter id="Adobe_OpacityMaskFilter" filterUnits="userSpaceOnUse" x="177.6" y="330.2" width="67.5" height="120.4">
				<feFlood  style="flood-color:white;flood-opacity:1" result="back"/>
				<feBlend  in="SourceGraphic" in2="back" mode="normal"/>
			</filter>
		</defs>
		<mask maskUnits="userSpaceOnUse" x="177.6" y="330.2" width="67.5" height="120.4" id="SVGID_1_">
			<g class="st20">
				<defs>
					<filter id="Adobe_OpacityMaskFilter_1_" filterUnits="userSpaceOnUse" x="177.6" y="330.2" width="67.5" height="120.4">
						<feFlood  style="flood-color:white;flood-opacity:1" result="back"/>
						<feBlend  in="SourceGraphic" in2="back" mode="normal"/>
					</filter>
				</defs>
				<mask maskUnits="userSpaceOnUse" x="177.6" y="330.2" width="67.5" height="120.4" id="SVGID_1_">
				</mask>
				<linearGradient id="SVGID_2_" gradientUnits="userSpaceOnUse" x1="168.2436" y1="496.8209" x2="247.8498" y2="290.2955">
					<stop  offset="0" style="stop-color:#000000"/>
					<stop  offset="1" style="stop-color:#FFFFFF"/>
				</linearGradient>
				<path class="st22" d="M180.2,445.8l6.2,2.8h0l4.4,2l51.8-113.9l2.6-5.7c-3.3-1.1-7-1.1-10.5,0.1l-9.7,3.5l-9.3,20.5l-35.1,77.2
					l-2.9,6.4L180.2,445.8z"/>
			</g>
		</mask>
		<linearGradient id="SVGID_3_" gradientUnits="userSpaceOnUse" x1="168.2436" y1="496.8209" x2="247.8498" y2="290.2955">
			<stop  offset="0" style="stop-color:#FFFFFF"/>
			<stop  offset="1" style="stop-color:#FFFFFF"/>
		</linearGradient>
		<path class="st23" d="M180.2,445.8l6.2,2.8h0l4.4,2l51.8-113.9l2.6-5.7c-3.3-1.1-7-1.1-10.5,0.1l-9.7,3.5l-9.3,20.5l-35.1,77.2
			l-2.9,6.4L180.2,445.8z"/>
		<defs>
			<filter id="Adobe_OpacityMaskFilter_2_" filterUnits="userSpaceOnUse" x="196.9" y="334.4" width="59.2" height="122.3">
				<feFlood  style="flood-color:white;flood-opacity:1" result="back"/>
				<feBlend  in="SourceGraphic" in2="back" mode="normal"/>
			</filter>
		</defs>
		<mask maskUnits="userSpaceOnUse" x="196.9" y="334.4" width="59.2" height="122.3" id="SVGID_4_">
			<g class="st24">
				<defs>
					<filter id="Adobe_OpacityMaskFilter_3_" filterUnits="userSpaceOnUse" x="196.9" y="334.4" width="59.2" height="122.3">
						<feFlood  style="flood-color:white;flood-opacity:1" result="back"/>
						<feBlend  in="SourceGraphic" in2="back" mode="normal"/>
					</filter>
				</defs>
				<mask maskUnits="userSpaceOnUse" x="196.9" y="334.4" width="59.2" height="122.3" id="SVGID_4_">
				</mask>
				<linearGradient id="SVGID_5_" gradientUnits="userSpaceOnUse" x1="185.9103" y1="503.6305" x2="265.5164" y2="297.1052">
					<stop  offset="0" style="stop-color:#000000"/>
					<stop  offset="1" style="stop-color:#FFFFFF"/>
				</linearGradient>
				<path class="st26" d="M256.1,343.4l-2.9,6.4l-48.6,106.9l-7.7-3.5l51.6-113.4l2.4-5.4c1.9,1.7,3.4,3.9,4.3,6.4L256.1,343.4z"/>
			</g>
		</mask>
		<linearGradient id="SVGID_6_" gradientUnits="userSpaceOnUse" x1="185.9103" y1="503.6305" x2="265.5164" y2="297.1052">
			<stop  offset="0" style="stop-color:#FFFFFF"/>
			<stop  offset="1" style="stop-color:#FFFFFF"/>
		</linearGradient>
		<path class="st27" d="M256.1,343.4l-2.9,6.4l-48.6,106.9l-7.7-3.5l51.6-113.4l2.4-5.4c1.9,1.7,3.4,3.9,4.3,6.4L256.1,343.4z"/>
	</g>
	<defs>
		<filter id="Adobe_OpacityMaskFilter_4_" filterUnits="userSpaceOnUse" x="413.3" y="425.3" width="187.9" height="124.6">
			<feFlood  style="flood-color:white;flood-opacity:1" result="back"/>
			<feBlend  in="SourceGraphic" in2="back" mode="normal"/>
		</filter>
	</defs>
	<mask maskUnits="userSpaceOnUse" x="413.3" y="425.3" width="187.9" height="124.6" id="SVGID_7_">
		<g class="st28">
			<defs>
				<filter id="Adobe_OpacityMaskFilter_5_" filterUnits="userSpaceOnUse" x="413.3" y="425.3" width="187.9" height="124.6">
					<feFlood  style="flood-color:white;flood-opacity:1" result="back"/>
					<feBlend  in="SourceGraphic" in2="back" mode="normal"/>
				</filter>
			</defs>
			<mask maskUnits="userSpaceOnUse" x="413.3" y="425.3" width="187.9" height="124.6" id="SVGID_7_">
			</mask>
			<linearGradient id="SVGID_8_" gradientUnits="userSpaceOnUse" x1="632.2448" y1="303.3512" x2="492.5587" y2="512.129">
				<stop  offset="0" style="stop-color:#000000"/>
				<stop  offset="1" style="stop-color:#FFFFFF"/>
			</linearGradient>
			<path class="st30" d="M561.8,425.3l-6.3,3.5l-19.1,10.6l-0.1,0l-29.1,16.2l0,0l-6.6,3.6l-11.4,6.3l-0.6,0.3l-10.6,5.9l-0.5,0.3
				l-10.7,6l-0.3,0.2l-32.6,18.1l-0.7,0.4l-5.6,3.1l-0.5,2.4l-0.1,0.5l-1.4,6.7l-0.1,0.5l-1.4,6.7l-0.1,0.5l-0.4,1.9
				c-0.3,1.5-0.3,3.1,0.1,4.5l8.1-4.3l0.7-0.4l8.9-4.7l0.6-0.3l9-4.8l0.6-0.3l9-4.8l0.5-0.3l33.5-17.8l0.7-0.4l10.8-5.7l0.7-0.4
				l10.8-5.7l0.6-0.3l10.2-5.4l0.4-0.2l52.1-27.7l12-6.4L561.8,425.3z M574.5,463.9l-42.4,22.5l-0.4,0.2l-64.4,34.2l-0.3,0.2
				l-9.2,4.9l-0.5,0.3l-9.1,4.8l-0.6,0.3l-34.3,14.1l36,4.6l17.4-13.7l0.2-0.1l103.3-56l26.8-14.5l4.3-15.8L574.5,463.9z"/>
		</g>
	</mask>
	<linearGradient id="SVGID_9_" gradientUnits="userSpaceOnUse" x1="632.2448" y1="303.3512" x2="492.5587" y2="512.129">
		<stop  offset="0" style="stop-color:#FFFFFF"/>
		<stop  offset="1" style="stop-color:#FFFFFF"/>
	</linearGradient>
	<path class="st31" d="M561.8,425.3l-6.3,3.5l-19.1,10.6l-0.1,0l-29.1,16.2l0,0l-6.6,3.6l-11.4,6.3l-0.6,0.3l-10.6,5.9l-0.5,0.3
		l-10.7,6l-0.3,0.2l-32.6,18.1l-0.7,0.4l-5.6,3.1l-0.5,2.4l-0.1,0.5l-1.4,6.7l-0.1,0.5l-1.4,6.7l-0.1,0.5l-0.4,1.9
		c-0.3,1.5-0.3,3.1,0.1,4.5l8.1-4.3l0.7-0.4l8.9-4.7l0.6-0.3l9-4.8l0.6-0.3l9-4.8l0.5-0.3l33.5-17.8l0.7-0.4l10.8-5.7l0.7-0.4
		l10.8-5.7l0.6-0.3l10.2-5.4l0.4-0.2l52.1-27.7l12-6.4L561.8,425.3z M574.5,463.9l-42.4,22.5l-0.4,0.2l-64.4,34.2l-0.3,0.2l-9.2,4.9
		l-0.5,0.3l-9.1,4.8l-0.6,0.3l-34.3,14.1l36,4.6l17.4-13.7l0.2-0.1l103.3-56l26.8-14.5l4.3-15.8L574.5,463.9z"/>
	<g>
		<path class="st32" d="M675.7,223.8c-0.2,3.9-1,7.7-2.1,11.5c0,0.1-0.1,0.2-0.1,0.4c-2.4,8-6.8,15.5-12.5,22.3
			c-7.1,8.5-16.3,15.9-26.8,21.9c-18.4,10.5-40.5,16.4-61,15.3c-14.2-0.8-27.7-4.9-38.7-13.1c-9.2-7-16.6-16.8-21.2-30.1
			c-15.1-44.1,10.7-74.9,45.9-88.4l0,0c11.2-4.3,23.4-6.8,35.5-7.5c13.3-0.7,26.5,0.8,38.3,4.8C659,169.6,677.9,190,675.7,223.8z"/>
		<g>
			<path class="st33" d="M586.4,293.1l-12.2,2.3c-14.3-0.6-27.8-4.6-38.8-12.7l0.9-10.4c0-2.1,0.4-4.1,1.1-6
				c1.6-4.5,4.9-8.5,9.3-11.3c0,0,0,0,0,0c0.9-0.6,1.8-1.1,2.7-1.6c0,0,0,0,0,0c2.4-1.2,5-2.1,7.8-2.6c2.8-0.5,5.6-0.6,8.3-0.3
				c1.1,0.1,2.1,0.3,3.2,0.5c1.8,0.4,3.6,1,5.2,1.8c2.8,1.3,5.2,3.1,7.2,5.2c1.4,1.6,2.6,3.5,3.4,5.5l9.1,18.9
				C595.6,286.7,592.1,292,586.4,293.1z"/>
			<g>
				<path class="st6" d="M557.7,225c-4.8-1.6-9.5,2.4-9.5,2.4l-6.5,10.5c0.1,1,1.2,4.2,2.5,6.4c1.5,2.6,6.2,3.8,6.5,5.6
					c0.5,3.2-3.5,4.6-3.5,4.6l4.8,9.5l16.7-2.9c-0.2-1.6,3.8-9.7-1.4-10.4c-4-0.5-5.3-2.8-5.5-3.9c-0.5-1.9,6.8-1.3,6.6-3.2
					c-0.1-1.2-1-7.2-1.8-9.9C566.5,233.6,562,226.4,557.7,225z"/>
				<path class="st33" d="M582.2,259.7c-1.9,4.2-5.2,8-9.8,11.1c-13.7,9-26.4,7.2-35.1-4.6c1.7-6.1,5.7-9.6,9.9-11.6
					c0,0,8.5,6.4,11.6,5.8c3-0.6,8.2-8.6,8.7-9.5c0-0.1,0.1-0.1,0.1-0.1C572.7,251.2,578.3,253.3,582.2,259.7z"/>
				<g>
					<g>
						<g>
							<path class="st33" d="M551.6,220.6c-1.4,0.3-2.7,0.8-3.8,1.6c4.8,6.8,11.2,3.7,18.9,11.9c0-0.3-0.1-0.6-0.1-0.8
								C564.9,225,558.2,219.4,551.6,220.6z"/>
						</g>
						<g>
							<path class="st33" d="M544.2,225.9c-2,3.2-2.8,7.5-2,11.9c0.1,0.7-0.2,2.2,0,2.8c1.4-0.7,2.2-5.1,6.8-8.3
								c5.9-4.1,8.9-4.6,10.3-10.1c-2.3-1.4-5-2-7.7-1.5C548.5,221.2,545.9,223.1,544.2,225.9z"/>
						</g>
						<g>
							<path class="st33" d="M543.9,225.6c-4.6,7.1-2,22.9-3.7,25.8c-2.7,4.7,8.7,2.5,10,0.2c0.4-0.8,0.8-2,1-3.1
								c-4.1-2.5-7.7-5.9-8.8-11.5c-0.4-2.2,7.8-14.2,8.1-16.2C546.2,222.2,544.6,224.5,543.9,225.6z"/>
						</g>
						<g>
							<path class="st33" d="M567.1,232.1c-1.1-2.5-3.9-10-11.3-11.4c1.1,1.8,9.2,9.2,9.6,11.4c1.1,5.8-0.6,10.7-4,14.8
								c0.5,0.9,1.2,1.6,1.9,2.2c2.2,1.8,14-0.4,9.7-3.9C570.8,243.5,569.4,237.3,567.1,232.1z"/>
						</g>
					</g>
				</g>
				<path class="st34" d="M559.6,264.1c-0.7,0.1-1.2,0.8-1,1.5c0.1,0.7,0.8,1.2,1.5,1c0.7-0.1,1.2-0.8,1-1.5
					C561,264.4,560.3,264,559.6,264.1z"/>
				<path class="st34" d="M560.9,270.7c-0.7,0.1-1.2,0.8-1,1.5c0.1,0.7,0.8,1.2,1.5,1c0.7-0.1,1.2-0.8,1-1.5
					C562.3,271.1,561.6,270.6,560.9,270.7z"/>
			</g>
			<g>
				<path class="st33" d="M673.6,234.7c-2.4,8-6.6,15.6-12.2,22.5c-7,8.6-16.2,16.1-26.5,22.2c-1-1.3-1.5-2.8-1.4-4.6l1.7-20.9
					c0-2.1,0.4-4.1,1.1-6c1.3-3.7,3.8-7,7-9.7c0.7-0.6,1.5-1.1,2.2-1.6c0,0,0,0,0,0c0.9-0.6,1.8-1.1,2.7-1.6c0,0,0,0,0,0
					c2.4-1.2,5-2.1,7.8-2.6c2.8-0.5,5.6-0.6,8.3-0.3c0,0,0,0,0,0c1,0.1,2,0.3,3,0.5c0,0,0,0,0,0c0.1,0,0.2,0,0.3,0.1c0,0,0,0,0,0
					c0.9,0.2,1.7,0.4,2.6,0.7c0.9,0.3,1.7,0.6,2.6,1C673.1,234.4,673.4,234.5,673.6,234.7z"/>
				<g>
					<path class="st6" d="M656.8,206.7c-4.8-1.6-9.5,2.4-9.5,2.4l-6.5,10.5c0.1,1,1.2,4.2,2.5,6.4c1.5,2.6,6.2,3.8,6.5,5.6
						c0.5,3.2-3.5,4.6-3.5,4.6l4.8,9.5l16.7-2.9c-0.2-1.6,3.8-9.7-1.4-10.4c-4-0.5-5.3-2.8-5.5-3.9c-0.5-1.9,6.8-1.3,6.6-3.2
						c-0.1-1.2-1-7.2-1.8-9.9C665.6,215.2,661.1,208.1,656.8,206.7z"/>
					<path class="st33" d="M673.7,234.3c0,0.1-0.1,0.2-0.1,0.4c-2.4,8-6.6,15.6-12.2,22.5c-9.8,2.8-18.5-0.5-25-9.3c0,0,0,0,0,0
						c1.3-4.6,3.9-7.7,6.9-9.8c0.3-0.2,0.6-0.4,0.9-0.6c0.5-0.3,1-0.6,1.5-0.8c0,0,0,0,0,0c0.1,0,0.1-0.1,0.2-0.1
						c0.2-0.1,0.3-0.2,0.5-0.2c0,0,8.5,6.4,11.6,5.8c3-0.6,8.2-8.6,8.8-9.5c0-0.1,0.1-0.1,0.1-0.1c0.2,0,0.4,0,0.7,0.1
						c0.1,0,0.2,0,0.3,0c0,0,0,0,0,0c0.9,0.1,1.8,0.3,2.7,0.5C671.5,233.3,672.6,233.8,673.7,234.3z"/>
					<g>
						<g>
							<g>
								<path class="st33" d="M650.6,202.3c-1.4,0.3-2.7,0.8-3.8,1.6c4.8,6.8,11,9.7,18.7,17.9c0-0.3,0.1-6.5,0-6.8
									C664,206.7,657.3,201,650.6,202.3z"/>
							</g>
							<g>
								<path class="st33" d="M643.3,207.5c-2,3.2-2.8,7.5-2,11.9c0.1,0.7-0.2,2.2,0,2.8c1.4-0.7,4.5-2.6,9.2-5.8
									c5.9-4.1,6.6-7.1,7.9-12.6c-2.3-1.4-5-2-7.7-1.5C647.5,202.8,645,204.8,643.3,207.5z"/>
							</g>
							<g>
								<path class="st33" d="M643,207.3c-4.6,7.1-4.6,22.9-3.7,25.8c1.5,5,8.7,2.5,10,0.2c0.4-0.8,0.8-2,1-3.1
									c-4.1-2.5-7.7-5.9-8.8-11.5c-0.4-2.2,7.8-14.2,8.1-16.2C645.3,203.9,643.7,206.2,643,207.3z"/>
							</g>
							<g>
								<path class="st33" d="M666.2,213.8c-1.1-2.5-3.9-10-11.3-11.4c1.1,1.8,9.2,9.2,9.6,11.4c1.1,5.8-0.6,10.7-4,14.8
									c0.5,0.9,1.2,1.6,1.9,2.2c2.2,1.8,8.7,1.6,9.7-3.9C672.3,225,668.5,219,666.2,213.8z"/>
							</g>
						</g>
					</g>
					<path class="st6" d="M670.3,233c-0.3-0.1-0.7-0.2-1.1-0.2c-0.6-0.1-1.3-0.2-1.9-0.3l-2.1,3.5c-1,1.7-2.3,3.3-3.8,4.7l-1.4,1.3
						c-1.1,1-2.7,1.3-4.1,0.8l-1.8-0.7c-1.9-0.7-3.6-1.7-5.2-3l-3.2-2.6c-0.6,0.3-1.1,0.6-1.7,0.9c-0.3,0.2-0.6,0.4-0.9,0.6l8.3,9.9
						l6.8-4.2l7.9,1.5L670.3,233z"/>
				</g>
			</g>
			<g>
				<path class="st6" d="M599.4,146.2l-19.5,3.6c-17.6,3.3-29.3,20.2-26,37.8v0c1.9,10.4,8.7,18.8,17.5,23.2l5.8,31.2l14.5-28.3
					c0,0,0.1,0,0.1,0l17.8-3.3l25.7,13.9l-8.4-21.8c8.3-7.3,12.6-18.6,10.5-30.3l0,0C634,154.6,617.1,143,599.4,146.2z"/>
				<g>
					<line class="st35" x1="568.8" y1="175.9" x2="614.2" y2="166.3"/>
					<line class="st35" x1="571.8" y1="191.9" x2="617.2" y2="182.4"/>
				</g>
			</g>
		</g>
	</g>
	<g>
		<path class="st32" d="M152.1,285.3c-2,26-18.4,49.5-40.6,63c-1.1,0.6-2.1,1.3-3.2,1.8c-22.4,12.3-44.8,10.5-62.5-0.5
			c-17.6-11-30.4-31-33.8-55.4c-0.8-5.8-0.7-11.6,0.3-17.2c1.8-10.7,6.7-20.8,13.5-29.7c16.6-21.7,45-36.2,70.5-33.8
			c0.3,0,0.7,0.1,1,0.1c8.1,0.9,15.7,3.7,22.5,7.9c8.4,5.2,15.6,12.5,21.1,20.9c1.8,2.8,3.4,5.7,4.8,8.6c1.4,3,2.6,6,3.6,9.2
			c1.4,4.4,2.3,8.9,2.7,13.3C152.3,277.5,152.4,281.5,152.1,285.3z"/>
		<g>
			<path class="st6" d="M32.5,243.1l-4.1,1.2c-13.7,4.1-21.5,18.6-17.3,32.3v0c2.9,9.6,10.9,16.3,20.2,18l0,0l16,13.4l1-15.6
				c13.2-4.5,20.5-18.6,16.5-32l0,0C60.7,246.8,46.2,239,32.5,243.1z"/>
			<g>
				<g>
					<path class="st32" d="M24.7,274.2c3.1,0,3.1-4.8,0-4.8C21.6,269.5,21.6,274.2,24.7,274.2L24.7,274.2z"/>
				</g>
			</g>
			<g>
				<g>
					<path class="st32" d="M37.8,270.3c3.1,0,3.1-4.8,0-4.8C34.7,265.5,34.7,270.3,37.8,270.3L37.8,270.3z"/>
				</g>
			</g>
			<g>
				<g>
					<path class="st32" d="M50.9,266.4c3.1,0,3.1-4.8,0-4.8C47.8,261.6,47.8,266.4,50.9,266.4L50.9,266.4z"/>
				</g>
			</g>
		</g>
		<g>
			<path class="st33" d="M116.6,347.4c-25.9,14.2-51.8,12.2-72.2-0.6l6.4-23.5c0.5-2.4,1.4-4.8,2.6-6.9c2.9-5,7.7-9,13.5-11.5
				c1.2-0.5,2.4-0.9,3.6-1.3c3.1-0.9,6.4-1.4,9.9-1.4c3.5,0,6.8,0.5,9.9,1.4c1.3,0.4,2.5,0.8,3.7,1.3c2.1,0.9,4,2,5.8,3.2
				c3,2.1,5.5,4.8,7.4,7.8c1.4,2.3,2.4,4.7,2.9,7.3L116.6,347.4z"/>
			<g>
				<path class="st6" d="M86.8,271.8c-5.4-3-11.9,0.8-11.9,0.8l-10.1,11.1c0,1.3,0.5,5.3,1.6,8.2c1.3,3.4,6.6,6,6.5,8.1
					c-0.1,3.9-5.2,4.8-5.2,4.8l3.6,12.4l20.6,0.3c0.1-2,6.7-10.7,0.7-12.7c-4.6-1.5-5.7-4.5-5.8-5.9c-0.1-2.4,8.4-0.1,8.6-2.4
					c0.1-1.4,0.4-8.8,0-12.1C95.3,283.9,91.6,274.5,86.8,271.8z"/>
				<path class="st33" d="M108.3,318.6c-3.2,4.5-7.9,8.4-14.2,11c-18.3,7.7-33,2.7-40.8-13.2c3.4-6.9,9-10.2,14.4-11.7
					c0,0,8.7,9.4,12.6,9.4c3.7,0,11.6-8.4,12.5-9.4c0.1-0.1,0.1-0.1,0.1-0.1C98.9,306.3,105.1,310.1,108.3,318.6z"/>
				<g>
					<g>
						<g>
							<path class="st33" d="M80.4,265.2c-1.7,0-3.4,0.4-4.9,1c4.3,9.2,12.5,6.9,19.8,18.4c0-0.3,0-0.7,0-1
								C95.4,273.4,88.7,265.2,80.4,265.2z"/>
						</g>
						<g>
							<path class="st33" d="M70.5,269.9c-3.1,3.4-5,8.3-5,13.7c0,0.8-0.7,2.5-0.6,3.3c1.8-0.5,3.7-5.6,9.9-8.4
								c7.9-3.6,11.7-3.5,14.5-9.7c-2.5-2.2-5.5-3.5-8.8-3.5C76.6,265.2,73.1,267,70.5,269.9z"/>
						</g>
						<g>
							<path class="st33" d="M70.2,269.5c-7.1,7.4-7.4,26.8-10.1,30c-4.2,5,9.8,5,11.9,2.4c0.7-0.8,1.4-2.3,1.9-3.4
								c-4.4-3.8-7.9-8.7-7.9-15.6c0-2.7,12.4-15.2,13.2-17.5C73.6,265.9,71.3,268.4,70.2,269.5z"/>
						</g>
						<g>
							<path class="st33" d="M96.4,282.3c-0.7-3.2-2.5-12.8-11-16.1c0.9,2.4,8.9,13,8.9,15.7c0,7.1-3,12.6-8,16.8
								c0.4,1.2,1,2.1,1.8,3c2.2,2.6,16.8,2.6,12.4-2.5C98.3,296.7,98,289.1,96.4,282.3z"/>
						</g>
					</g>
				</g>
				<path class="st34" d="M80.4,318.8c-0.9,0-1.6,0.7-1.6,1.6c0,0.9,0.7,1.6,1.6,1.6c0.9,0,1.6-0.7,1.6-1.6
					C82,319.5,81.3,318.8,80.4,318.8z"/>
				<path class="st34" d="M80.4,327c-0.9,0-1.6,0.7-1.6,1.6c0,0.9,0.7,1.6,1.6,1.6c0.9,0,1.6-0.7,1.6-1.6
					C82,327.7,81.3,327,80.4,327z"/>
			</g>
		</g>
		<path class="st6" d="M187.2,232.9h-76.5c-5.7,0-10.4,6.1-10.4,13.7v16.7c0,5.9,2.8,10.9,6.7,12.8l-0.1,10.8l19.3-10h60.9
			c5.7,0,10.4-6.1,10.4-13.7v-16.7C197.5,239,192.9,232.9,187.2,232.9z"/>
		<g>
			<g>
				<g>
					<polygon class="st33" points="116.2,243.1 117.9,246.6 121.8,247.2 119,249.9 119.7,253.8 116.2,252 112.7,253.8 113.3,249.9 
						110.5,247.2 114.4,246.6 					"/>
					<polygon class="st33" points="128.9,243.1 130.6,246.6 134.5,247.2 131.7,249.9 132.4,253.8 128.9,252 125.4,253.8 126,249.9 
						123.2,247.2 127.1,246.6 					"/>
					<polygon class="st33" points="141.6,243.1 143.3,246.6 147.2,247.2 144.4,249.9 145.1,253.8 141.6,252 138.1,253.8 
						138.8,249.9 135.9,247.2 139.8,246.6 					"/>
					<polygon class="st33" points="154.3,243.1 156,246.6 159.9,247.2 157.1,249.9 157.8,253.8 154.3,252 150.8,253.8 151.5,249.9 
						148.6,247.2 152.5,246.6 					"/>
					<polygon class="st33" points="167,243.1 168.7,246.6 172.7,247.2 169.8,249.9 170.5,253.8 167,252 163.5,253.8 164.2,249.9 
						161.3,247.2 165.3,246.6 					"/>
				</g>
				<line class="st37" x1="112" y1="258.3" x2="188.6" y2="258.3"/>
				<line class="st37" x1="112" y1="263.6" x2="188.6" y2="263.6"/>
				<line class="st37" x1="112" y1="269.3" x2="188.6" y2="269.3"/>
			</g>
		</g>
	</g>
	<g>
		<g>
			<path class="st32" d="M450.7,211c0,2.1-0.1,4.2-0.2,6.2c-0.2,3.5-0.6,7-1.3,10.4c-0.5,2.4-1.1,4.7-2,7c-1.8,4.8-4.4,9.4-8.3,13.5
				c-13,14-33.8,15.9-51.8,14.1c-7.5-0.8-25.8-4.3-39.8-17.4c-0.1-0.1-0.2-0.2-0.3-0.3c-8.9-8.4-16-20.8-17.4-38.7
				c0-0.1,0-0.2,0-0.4c-0.1-1.1-0.2-2.3-0.2-3.4c-1.2-34.6,41.9-68.6,77.3-66.2c17.6,1.2,32,12.9,38.3,29.3
				c4.8,12.5,5.2,25.7,5.5,38.8C450.7,206.3,450.7,208.7,450.7,211z"/>
		</g>
		<polygon class="st38" points="385.5,149 385.1,158.1 392.3,163.7 383.5,166 380.5,174.7 375.5,167 366.3,166.8 372.1,159.7 
			369.5,150.9 378,154.2 		"/>
		<g>
			<path class="st6" d="M418.3,177.4l-10,2.8l-4.1,1.1l-7.7,2.2c-0.6,0.2-1.1-0.2-1.1-0.8c0-3.4-0.9-6.8-1.8-10
				c-0.5-1.8-1-3.8-1.7-5.7c-0.8-1.9-1.8-3.7-3.4-4.9c-1.8-1.3-4-2-6.2-1.4c-5,1.4-4.4,6.5-3.7,10.6c0.8,4.8,1.9,9.6,1,14.4
				c-0.6,3.4-1.9,6.5-4.7,8.6c-2.2,1.6-3.7,2.9-6.2,4.1c-0.4,0.2-0.6,0.6-0.5,1l9.1,32.2c0.1,0.5,0.6,0.7,1.1,0.6l8.9-2.5
				c0.3-0.1,0.6,0,0.8,0.2c2.4,1.9,5.7,2.6,8.8,1.7l13.9-3.9l10.1-2.8l4-1.1c4.1-1.1,6.5-5.4,5.3-9.5l0,0c-0.3-1.1-0.8-2-1.5-2.7
				c-0.3-0.3-0.3-0.8-0.1-1.1c1.2-1.6,1.4-4.6,0.8-6.7l-0.2-0.8c-0.3-1.1-0.8-2-1.5-2.7c-0.3-0.3-0.3-0.8-0.1-1.1
				c1.2-1.6,1.6-3.8,1-5.8l-0.2-0.8c-0.3-1.1-0.8-2-1.5-2.7c-0.3-0.3-0.3-0.8-0.1-1.1c1.2-1.6,1.6-3.8,1-5.8l0,0
				C426.6,178.6,422.4,176.2,418.3,177.4z"/>
			<path class="st38" d="M373,237.3l-25.8,7.3c-8.9-8.4-16-20.8-17.4-38.7c0-0.1,0-0.2,0-0.4l31.8-9c0.5-0.2,1.1,0.2,1.3,0.7
				l10.9,38.8C373.9,236.6,373.5,237.1,373,237.3z"/>
		</g>
	</g>
	<g>
		<path class="st38" d="M473.3,246h-90.4c-1.5,0-2.7-1.2-2.7-2.7v-17.3c0-1.5,1.2-2.7,2.7-2.7h90.4c1.5,0,2.7,1.2,2.7,2.7v17.3
			C476,244.8,474.8,246,473.3,246z"/>
		<g>
			<polygon class="st6" points="397.7,228.3 399.7,232.5 404.4,233.2 401,236.5 401.8,241.1 397.7,238.9 393.5,241.1 394.3,236.5 
				390.9,233.2 395.6,232.5 			"/>
			<polygon class="st6" points="412.9,228.3 415,232.5 419.6,233.2 416.3,236.5 417.1,241.1 412.9,238.9 408.7,241.1 409.5,236.5 
				406.1,233.2 410.8,232.5 			"/>
			<polygon class="st6" points="428.1,228.3 430.2,232.5 434.9,233.2 431.5,236.5 432.3,241.1 428.1,238.9 423.9,241.1 424.7,236.5 
				421.3,233.2 426,232.5 			"/>
			<polygon class="st6" points="443.3,228.3 445.4,232.5 450.1,233.2 446.7,236.5 447.5,241.1 443.3,238.9 439.1,241.1 439.9,236.5 
				436.5,233.2 441.2,232.5 			"/>
			<polygon class="st6" points="458.5,228.3 460.6,232.5 465.3,233.2 461.9,236.5 462.7,241.1 458.5,238.9 454.3,241.1 455.1,236.5 
				451.7,233.2 456.4,232.5 			"/>
		</g>
	</g>
	<line class="st39" x1="56.1" y1="550.1" x2="653" y2="550.1"/>
	<path class="st4" d="M352.7,542.8c0.2,0.3,0.5,0.7,0.7,1c1.7,2.1,4,3.5,6.5,4.6c0,0,0,0,0,0c0.2,0.1,0.5,0.2,0.7,0.3h174.5
		c1.1-3.8,1.2-7.7-1-11.1c-2.3-3.5-6.4-5.4-10.4-6.5c-4-1.1-8.3-1.5-12.2-2.9c-1.2-0.4-2.4-1-3.1-2c-2.3-3,2.2-7.1,4-9.2
		c2.1-2.3,4.2-4.6,5.6-7.3c4.6-8.7-1.4-18.6-10.3-21.2c-3.2-0.9-6.6-1.2-9.8-0.1c-3.8,1.3-5.7,5.2-10.3,4.1c-4-1-5.8-5-5.8-8.8
		c0.1-3.4,0.9-6.9,1.8-10.2c4.5-15.4-5.9-27.1-24.6-26.4c-5.5,0.2-11.2,1.1-16.8,2.6c-4.5,1.2-9,2.9-13.1,4.8
		c-0.2,0.1-0.4,0.2-0.6,0.3c-7.3,3.6-15.7,1.1-23.2,3.7c-5.1,1.7-9.4,6.6-10.9,11.7c-0.2,0.6-0.3,1.2-0.4,1.8c0,0,0,0,0,0
		c-0.4,2.7,0.1,5.5,1.5,7.8c0.2,0.4,0.5,0.8,0.8,1.2c0.4,0.5,0.8,0.9,1.2,1.3c3.1,2.8,7.5,3.8,11,6.1c1.5,1,2.7,2.2,3.6,3.5
		c1.6,2.4,2.3,5.3,1.7,8.3c-0.2,1.2-0.7,2.2-1.2,3.1c0,0,0,0,0,0c-3.2,4.9-11.2,4.9-16.6,4.9c-3.1,0-6.3-0.2-9.5-0.4
		c-6.4-0.3-12.9-0.2-18.7,2.3c-2.1,0.9-4.1,2.1-5.9,3.5c0,0,0,0-0.1,0c-3.4,2.6-6.2,6-8.2,9.7c-0.2,0.4-0.4,0.8-0.6,1.3
		c-0.9,1.8-1.6,3.8-2.1,5.9C350.3,534.8,350.4,539.2,352.7,542.8z"/>
	<g>
		<polyline class="st40" points="465.5,471.9 441.1,542.1 472.4,522.4 504.3,502.3 		"/>
		<line class="st40" x1="520" y1="543.1" x2="463.2" y2="527.7"/>
	</g>
	<path class="st6" d="M348.7,543.9c0.2,0.3,0.4,0.6,0.6,0.8c1.4,1.7,3.3,2.9,5.3,3.8c0,0,0,0,0,0c0.2,0.1,0.4,0.2,0.6,0.2H497
		c0.9-3.1,1-6.3-0.8-9.1c-1.9-2.8-5.2-4.4-8.5-5.2c-3.3-0.9-6.7-1.2-9.9-2.4c-1-0.3-1.9-0.8-2.5-1.6c-1.8-2.4,1.8-5.8,3.3-7.4
		c1.7-1.9,3.4-3.7,4.6-5.9c3.7-7.1-1.1-15.1-8.4-17.3c-2.6-0.8-5.3-1-7.9-0.1c-3.1,1.1-4.6,4.2-8.3,3.3c-3.2-0.8-4.7-4.1-4.7-7.2
		c0-2.8,0.7-5.6,1.5-8.3c3.7-12.6-4.8-22-20-21.4c-4.5,0.2-9.1,0.9-13.6,2.1c-3.7,1-7.3,2.3-10.6,3.9c-0.2,0.1-0.3,0.1-0.5,0.2
		c-5.9,2.9-12.7,0.9-18.9,3c-4.1,1.4-7.7,5.3-8.8,9.5c-0.1,0.5-0.2,1-0.3,1.4c0,0,0,0,0,0c-0.3,2.2,0.1,4.5,1.2,6.4
		c0.2,0.3,0.4,0.6,0.7,1c0.3,0.4,0.6,0.7,1,1c2.6,2.3,6.1,3.1,9,5c1.2,0.8,2.2,1.8,3,2.9c1.3,1.9,1.9,4.3,1.4,6.8
		c-0.2,1-0.5,1.8-1,2.5c0,0,0,0,0,0c-2.6,4-9.1,4-13.5,4c-2.5,0-5.1-0.2-7.7-0.3c-5.2-0.2-10.5-0.2-15.2,1.8
		c-1.7,0.7-3.3,1.7-4.8,2.8c0,0,0,0,0,0c-2.7,2.1-5,4.8-6.6,7.9c-0.2,0.3-0.4,0.7-0.5,1c-0.7,1.5-1.3,3.1-1.7,4.8
		C346.7,537.4,346.8,541,348.7,543.9z"/>
	<path class="st42" d="M367.5,378.3c13.5,4.8,36.6,7.4,47.4,13.4c10.9,6.1,3.3-1.8,7.9,9.8s-0.7,40.3-1,60.2
		c-0.3,19.9-8.6,54.9-8.7,77.6c0,3.8,0,7.5,0.1,10.6c-44.6-4.8-89.1-6.7-133.9-10.7c-1.2-22.3-8.8-56.9-9.1-76.3
		c-0.3-19.9-5-48.7-0.6-60.3c4.4-11.7-2.6-3.8,7.5-9.9c10.1-6.1,31.4-8.8,43.8-13.8c8.4,1.3,14.9,1.9,22.6,3.2
		C351.6,380.3,358.6,379.7,367.5,378.3z"/>
	<path class="st43" d="M345.7,395.3c-2.8-0.5,1.9,0.4-0.9,1.1c-4.7,1.1-9,2.5-11.4,7.1c-4,7.4,1.3,14.1,3.8,20.9
		c1.7,4.8,3.2,9.6,4.4,14.6c2.4,9.5,3.8,19.2,4.5,28.9c1.1,16.2,0.6,33-5.4,48.3c-3.5,8.9-8.6,3.1-14.2-0.3
		c-2.3-1.4-5.3-2.7-7.2-4.7c-1.1-1.1-5.4-112.6-5.4-112.6l3.6-18.8c0,0,8.4,9.2,18.3,12.8C345,395.9,345.7,395.3,345.7,395.3z"/>
	<path class="st44" d="M366.9,377.6c2.6,0.7,5.2,1.3,7.8,2c-0.4,1.1-0.9,2.1-1.8,2.9c-19.1,17.3-37.9,18.4-57.2,1
		c-0.9-0.8-1.4-1.8-1.9-2.9c2.4-0.7,4.8-1.4,7.2-2.1c7.5,1.1,15,2.2,22.5,3.5C351.3,380.4,359.1,378.9,366.9,377.6z"/>
	<path class="st45" d="M423.7,551c-20.3-3-40.3-2.4-60.7-6.9c-2.7-17.8-9-63.2-9.4-75.8c-0.9-27.6,6-44,8.9-61.7
		c0.6-3.7,2.1-7,3.2-10.6c1.1-3.4,2-7.1,3.1-10.5c0.8-2.4,1.5-5,2-7.5c14,4.9,28.7,8.3,42.5,12.4c3.9,1.2,5.1,1.7,8,4.1
		c0.8,0.7,1.2,0.1,1.8,1.8c1.2,3.2,1.5-1.9,2.1,4.1c1.7,16.9,2,37.4-0.3,55.7c-0.6,4.7-1.3,12.3-1.7,18.3
		c-1.3,17.4-2.2,36.1-1.1,53.7c0.1,1.4,0.1,2.1,0.2,3.7c0.3,4.2,0.6,8.5,0.9,13C423.4,546.5,423.5,548.8,423.7,551z"/>
	<path class="st46" d="M369.2,378.2c1.3-0.1,0.4-1.3,2.3-0.9s6.2,2.6,8.8,3.8c2.2,5.3-1.4,12-3.1,17c-2.6,7.3-5.5,14.4-7.2,22.1
		c-0.2,0.9-0.4,1.9-0.9,2.7c-1.6,2.8-10.2,0-10.8,3.8c1.3-7.9,2.5-14.1,4.7-22.2c2.2-8.1,5.4-17.5,7.8-25.9
		C370.3,378.4,369.8,378.4,369.2,378.2z"/>
	<path class="st45" d="M276.5,392c-12.4,13.9-0.5-7.6-16.2,16.8c-8.9,13.8-31.9,74.4-38.7,93.8c-6.8,19.4,0.8,18.6,5.5,31.1
		c0.5,1.4,3.1,1.6,3.7,3.4c11.2,0.5,22.9,1.5,33.6,2c-2.8-5.5-14.5-14.9-15.4-19.4c-2.2-10.2-6.6,1.5-0.3-11.5
		c6.3-13,22.9-35.9,32.2-50.3C286.1,439.5,290.6,406.2,276.5,392z"/>
	<path class="st45" d="M317.4,379.1c3.5,14.6,5.5,10.6,8.3,28.4c2.8,17.9,11.3,33.5,12,60.8c0.3,12.1-4.4,56.4-6.8,73.5
		c-20.3,1.4-40.5-2.4-60.8-2.5c0.2-3.1,0.3-7.2,0.5-10.3c1.2-21.7-0.3-50.7-2.8-70.8c-2.4-20.1-2-40.8-0.1-55.7
		c0.2-1.9,0.5-3.8,1.1-5.6c0.6-1.7,2.2-2.4,3.7-3.2c7.3-3.8,15.4-5.6,23.2-7.9c6.8-2,13.8-3.8,20.5-6.2
		C316.4,379.6,317.5,379.3,317.4,379.1z"/>
	<path class="st46" d="M319,379.2c-1.2-0.1-0.4-1.3-2.2-0.8s-5.6,2.7-7.9,3.9c-1.9,6.3,6.8,30.1,7.6,36.4c0.7,6.2,9,4.3,14.2,8.9
		c-1.7-7.8-3.3-14-5.3-22.1c-2-8.1-5.1-17.5-7.8-25.7C318,379.4,318.4,379.4,319,379.2z"/>
	<path class="st47" d="M367.5,377.8c-9.6,10.6-26,13.2-38.4,6.7c-2.9-1.5-5.5-3.5-7.8-6c0.2-0.2,0.7-0.1,1-0.2
		c0.8-0.2,1.4-0.1,2.2-0.3c1.9-0.6,3.8,0.2,5.7-1.2c1.8-1.4,3-1.6,3.1-5.3c0-1.6,0-3.7,0-6c0-0.2,0-0.4,0-0.7
		c-0.1-5.7-0.3-12.5-0.4-16.3c-0.1-5.4-0.4-6.1-0.5-10.5c4.4,0.8,8.7,1.5,13,2.5c4.3-1.4,8.6-2.6,12.9-3.9c0.1,4.4-0.2,5.4-0.1,10.7
		c0.1,3.2,0.1,9,0.2,14.2c0.1,3.5,0.1,6.7,0.2,8.7c0.1,1.4,0.3,3,1.3,4.1c0.8,0.8,1.9,1.2,2.9,1.6
		C364.3,376.6,365.8,377.4,367.5,377.8z"/>
	<path class="st48" d="M311.2,327.2c-0.3,0-0.4,0.1-0.6,0.1c0,0,0,0,0,0c0,0,0,0,0,0c-4.1-1.4-6.3,4.7-6,8.3c0.3,4.2,3.6,8,8.3,7.7
		c4.7-0.3,7.7-3.7,7.9-8.3c0.1-2.7-1.4-4.7-3.2-6.4c0.2,2.8-0.1,5-3,5.8c-0.1-1.4,0-3.4-0.1-4.6
		C314.1,327.8,312.8,327.3,311.2,327.2z"/>
	<path class="st48" d="M370.4,324.4c0.3,0,0.4,0.1,0.6,0.1c0,0,0,0,0,0c0,0,0,0,0,0c4.1-1.6,6.7,4.1,6.8,7.8
		c0.2,4.3-2.8,8.5-7.5,8.7c-4.8,0.2-8.1-3.1-8.7-7.7c-0.4-2.7,0.9-4.8,2.6-6.8c0,2.8,0.6,5.1,3.6,5.6c0-1.4-0.3-3.5-0.3-4.7
		C367.5,325.3,368.7,324.6,370.4,324.4z"/>
	<path class="st47" d="M358.3,361.5c-4.3,3.3-9.6,5.3-15.6,5.3c-2.6,0-5-0.3-7.3-0.8c0,0,0,0,0,0c-0.7-0.2-1.4-0.4-2.1-0.6
		c-10.3-3.2-17.7-11.8-19.6-23.1c-0.2-0.9-0.3-1.9-0.4-2.9c-0.5-6.6-1-18.8-1.1-24.9c-0.5-17.5,10-28.3,26.6-28.6
		c16.6-0.3,27.9,6.9,29.5,27.1c0,0,1,18.6,1.2,24.6C369.8,347,365.5,356,358.3,361.5z"/>
	<g>
		<path class="st49" d="M373.6,314.6c-3.4-0.3-1.4-0.1-8.4-0.7c-7-0.6-29.3-2.3-35.8-2.8c-0.6-0.1-1.1-0.1-1.5-0.1
			c0.1,0-0.1,0-0.7-0.1c-2.9-0.3-4.1-0.4-6.9-0.6c-1,2.6-3,7.2-3.9,9.3c-0.1,0.3-0.2,0.5-0.2,0.6c0.1-0.3-0.2,0.6,0,0
			c0,0.1-0.1,0.3-0.4,0.9c-1,2.3-3.3,8-4.6,11c1.5-0.4,2-0.6,3.1-1l-0.6,11.3c1.9,11.3,9.3,19.8,19.6,23.1l0,4.8v0.3
			c0,0,0.1,0,0.2,0c0,0.4-0.1,0.8-0.1,0.9c-0.3,2.2-1.4,4.4-3.5,5.4c-2.6,1.3-5.8,0.5-8.5,1.5c1,1.4,2.4,2.5,3.8,3.5
			c0.4,0.3,3.7,2.8,4,2.6c2.1-1.9,4-4.1,5.3-6.4c2.8-4.6,7.4-7.9,12.7-9.1c4.6-1,9-2.7,11.2-5.6l0-1.9c-8.9,7.1-18.4,5.8-22.7,4.7
			c-0.1-0.1-0.1-0.1-0.2-0.2c0,0,0,0,0,0c-0.7-0.3-1.5-0.8-2.2-1.3c-6.7-4.8-11-16.5-13.3-25.3c-1.4-5.3,0.8-10.9,5.4-13.8
			c0.4-0.2,0.7-0.5,1.1-0.7c2.5-1.7,4.4-2.4,7.9-0.4c6.1,3.5,13.8,5.1,21.4,4.6c3.8-0.3,8,0.4,11,2.7c1.8,1.4,2.3,2.5,3.4,4.2
			c3.5-6.8,6.5-13.6,8.7-21C376,314.8,377,314.8,373.6,314.6z"/>
		<path class="st49" d="M327.9,310.9C327.7,310.9,325,310.6,327.9,310.9L327.9,310.9z"/>
	</g>
	<path class="st50" d="M316.2,313.8c2.2-2.6,4.4-5.2,6.6-7.9c2.4-0.7,4.8-1.4,7.3-2c5.2,0.5,11.1,0.8,16.1,1.3
		c5.1,0.5,16.8,3.1,16.8,8.4c0,5.3-0.5,7.3,2.9,11.3c0.1,0.1,0,0.3,0,0.4c0.1,1.8-0.1,3.5,0.8,5.1c0.5,0.9,1.4,1.6,2.5,1.8
		c0.1-1.6-0.3-2.4-0.1-4.1c0.2-1.7,2.2-2.9,4-3.1c9.7-13.2,8.5-32.7-4.4-43.3c-7.8-6.4-17.3-9-27.1-9.8c-5-0.4-9.6,0.5-14.2,2.3
		c-2.2,0.9-4,2.2-5.6,3.8c-2,2-2.7,5.1-5.9,5.7c-1.1,0.2-2.2-0.1-3.3,0c-2.6,0.4-4.9,1.5-6.5,3.6c-2.5,3.2-4.2,6.7-5.6,10.5
		c-1.7,4.8-4,9.1-3.2,14.6c0.9,6,7,11.4,11.2,15.7c1.8,0,3.9,1,4.3,2.6s0,2.5,0.3,4c1.7-0.3,2.7-2.3,2.8-3.8c0-1.5-0.1-2.3-0.1-3.7
		L316.2,313.8z"/>
	<path class="st50" d="M309,322.9c-5.4-13.8-2.9-26.1,13.2-29.4c4.7-7.3,10.5-10.2,19.3-8.3c8.7,2,18.4,4.9,26.1-1.7
		c1.7,4.1,1.1,7.7-1.2,11.4c9.2,8.6,9.2,17.9,1.7,27.6c-3.3-14.2-34.6,0.9-40.8-12.9C325,322,316.5,317.2,309,322.9z"/>
	<path class="st51" d="M315.6,330.3c-0.1,1.3,0,0.8,0,1.1c-0.1,2-0.2,2.5-0.4,4.6c-0.1,1.3,0,5.5-1.8,6.3
		c-3.2-5.3-6.2-10.6-9.5-15.9c-3-4.9-5.8-9.7-6.6-15.5c-0.1-0.5-0.1-1,0.1-1.4c1.4-2.5,4.2,0.8,5.6,1.5c1.6,0.8,2.8,0.8,4.4,0.7
		c3.5-0.6,6.6-2.1,9.5-3.9c0.8-0.5,1.6-1.1,2.4-1.7c2.1-1.6,4-3.3,5.9-5c0,0,0.1,0.1,0.1,0.1c0,0,0-0.1,0-0.1
		c0.1,0.1,0.2,0.2,0.3,0.3c1.4,1.1,2.6,1.9,3.8,2.6c0.1,0.1,0.2,0.1,0.3,0.1c0,0,0,0,0,0c3.7,2.1,7.1,2.5,14.4,3
		c4.6,0.3,15-1.8,22-5.9c1-0.6,1.9-1.3,2.8-2.1c3.3-2.9,4.9-6.3,6-10.4c4.9,8.3,6.1,17.1,3.8,26.4c-1.8,7.6-5.2,14.2-8.6,21.1
		c-0.1,0.3-0.3,0.5-0.4,0.8c-1.7-0.2-2.1-2-2.5-3.4c-0.2-0.6-0.3-1-0.4-1.5c-0.4-1.7-0.6-3.4-0.7-5.1c0-0.2,0-0.4,0-0.6
		c-7.2-9.5-33.5-3.7-38.7-16.4c-1.1,6-3.7,7.9-6.8,9c-2.7,0.9-4.5,3.4-4.6,6.2L315.6,330.3z"/>
	<path class="st52" d="M422.4,531.8c-16.8-32.2-20-71.6-15.6-107.1c0.2-1.3,0.7-4.6,0.9-6.1c1.4,16.2,3.7,33.4,10.7,48.4
		c1.3,2.7,2.9,5.1,4.9,7.3c-1.3,17.8-2.2,36-1.1,53.9C422.3,529.6,422.3,530.4,422.4,531.8z"/>
	<g>
		<path class="st53" d="M458.5,526.4c-4.3,7.3-12.6,10.9-19.8,14.6c-9,4.6-18.6,8-28.3,10.7c-1,0.3-6.4,2.4-6.7,2.2
			c-7-4.5-10.1-6.6-15.7-10.8c-0.8-0.6-1.6-1.2-2.5-1.9c0.6,0.4,9.9-6.2,11-6.8c4-2.5,8-5,11.9-7.6c7.3-4.8,14.4-9.9,21.5-15
			c0.9-0.7,1.9-1.4,2.4-2.4c0.1-0.2,0.2-0.5,0.2-0.7c0.6-3.5-4.4-10.7-5.6-13.5c-2.2-4.8-4.6-9.6-7.2-14.3c-0.5-1-1.6-2.9-2.2-3.9
			c0,0,0,0,0,0c0,0,0,0,0,0c0,0,0,0,0,0c0,0,0,0,0,0c-0.1-0.1-0.2-0.2-0.3-0.5c-0.7-1.1-2.9-4.9-3.8-6.3c0,0,0-0.1-0.1-0.1
			c-4.5-7.2-7.3-15.4-8-23.9c-0.5-5.7-0.7-11.4-0.1-18.5c0.9-10.1,3.6-26,13.6-32.8c0.7-0.5,2.1,0.4,2.6,0.9c1.1,1,2,1.8,3,2.8
			c1.1,1.1,2.1,2,3.1,3.3c1,1.3,1.7,2.3,2.6,4c1.2,2.2,1.5,2.8,2.9,5.7c7.9,17,14.3,34.7,19.2,52.8c2.5,9.1,4.6,18.3,6.2,27.5
			c1.2,6.6,3.1,13.1,3.4,19.9C461.9,516.9,461,522.1,458.5,526.4z"/>
	</g>
	<path class="st52" d="M396.2,539.1c-3.2,1.6-5.9,2.9-8.2,4c-0.8-0.6-1.6-1.2-2.5-1.9c0.6,0.4,9.9-6.2,11-6.8c4-2.5,8-5,11.9-7.6
		c7.3-4.8,14.4-9.9,21.5-15c0.9-0.7,1.9-1.4,2.4-2.4c0.1-0.2,0.2-0.5,0.2-0.7C432.5,508.7,443,515.8,396.2,539.1z"/>
	<path class="st54" d="M481.3,569.3H243.9c-0.8,0-1.4-0.6-1.4-1.4v-9.2c0-0.8,0.6-1.4,1.4-1.4h237.4c0.8,0,1.4,0.6,1.4,1.4v9.2
		C482.7,568.7,482.1,569.3,481.3,569.3z"/>
	<path class="st55" d="M238.9,562.3h198.8c3.5,0,6.5-2.8,6.7-6.3v0c0.2-3.5-2.5-6.3-5.9-6.3H239.7c-3.5,0-6.5,2.8-6.7,6.3v0
		C232.8,559.5,235.5,562.3,238.9,562.3z"/>
	<path class="st50" d="M238.9,562.3h198.8c2.3,0,4.3-1.2,5.5-3c-1-1.8-2.9-3-5.2-3H239.3c-2.2,0-4.3,1.2-5.5,3
		C234.8,561.2,236.7,562.3,238.9,562.3z"/>
	<path class="st55" d="M234.8,549.7h159c4.5,0,8-3.7,7.7-8.3l-27.9-103c-0.3-4.5-4.2-8.3-8.8-8.3h-159c-4.5,0-8,3.7-7.7,8.3
		l27.9,103C226.3,546,230.2,549.7,234.8,549.7z"/>
	<path class="st56" d="M234.8,549.7h154.4c4.5,0,8-3.7,7.7-8.3l-27.9-103c-0.3-4.5-4.2-8.3-8.8-8.3H205.8c-4.5,0-8,3.7-7.7,8.3
		l27.9,103C226.3,546,230.2,549.7,234.8,549.7z"/>
	<defs>
		<filter id="Adobe_OpacityMaskFilter_6_" filterUnits="userSpaceOnUse" x="225" y="430.2" width="144.4" height="119.5">
			<feFlood  style="flood-color:white;flood-opacity:1" result="back"/>
			<feBlend  in="SourceGraphic" in2="back" mode="normal"/>
		</filter>
	</defs>
	<mask maskUnits="userSpaceOnUse" x="225" y="430.2" width="144.4" height="119.5" id="SVGID_10_">
		<g class="st57">
			<defs>
				<filter id="Adobe_OpacityMaskFilter_7_" filterUnits="userSpaceOnUse" x="225" y="430.2" width="144.4" height="119.5">
					<feFlood  style="flood-color:white;flood-opacity:1" result="back"/>
					<feBlend  in="SourceGraphic" in2="back" mode="normal"/>
				</filter>
			</defs>
			<mask maskUnits="userSpaceOnUse" x="225" y="430.2" width="144.4" height="119.5" id="SVGID_10_">
			</mask>
			<linearGradient id="SVGID_11_" gradientUnits="userSpaceOnUse" x1="224.9759" y1="489.9483" x2="369.3632" y2="489.9483">
				<stop  offset="0" style="stop-color:#000000"/>
				<stop  offset="1" style="stop-color:#FFFFFF"/>
			</linearGradient>
			<path class="st59" d="M243.2,549.7l123.9-116.1c1.1,1.4,1.8,3,1.9,4.8l0.4,6L259.1,549.7H243.2L243.2,549.7z M322.8,430.2
				L225,525.4l1,16c0.1,1.3,0.4,2.5,1,3.5l122.3-114.8H322.8z"/>
		</g>
	</mask>
	<linearGradient id="SVGID_12_" gradientUnits="userSpaceOnUse" x1="224.9759" y1="489.9483" x2="369.3632" y2="489.9483">
		<stop  offset="0" style="stop-color:#FFFFFF"/>
		<stop  offset="1" style="stop-color:#FFFFFF"/>
	</linearGradient>
	<path class="st60" d="M243.2,549.7l123.9-116.1c1.1,1.4,1.8,3,1.9,4.8l0.4,6L259.1,549.7H243.2L243.2,549.7z M322.8,430.2
		L225,525.4l1,16c0.1,1.3,0.4,2.5,1,3.5l122.3-114.8H322.8z"/>
	<path class="st56" d="M401.6,562.3h36.1c3.5,0,6.5-2.8,6.7-6.3v0c0.2-3.5-2.5-6.3-5.9-6.3h-36.1c-3.5,0-6.5,2.8-6.7,6.3v0
		C395.5,559.5,398.2,562.3,401.6,562.3z"/>
	<path class="st61" d="M236.3,552.9h165.5c1.7,0,3.2-1.4,3.3-3.2l0,0c0.1-1.7-1.2-3.2-3-3.2H236.7c-1.7,0-3.2,1.4-3.3,3.2v0
		C233.3,551.5,234.6,552.9,236.3,552.9z"/>
</g>
</svg>
