<svg t="1622641260269" class="icon" viewBox="0 0 1024 1024" version="1.1" xmlns="http://www.w3.org/2000/svg" p-id="9125" width="128" height="128"><path d="M640 800.548571l0 86.308571-403.968 0.585143 0-86.308571zM777.728 602.843429l0 400.603429-0.585143 19.968 0 0.585143-667.428571-0.585143 0-420.571429 69.12 0 0 353.133714 530.285714 0 0-353.133714 68.534857 0zM247.442286 653.165714l402.285714 37.156571-7.460571 85.723429-402.870857-37.156571zM286.281143 472.576l390.290286 104.594286-22.308571 83.456-390.290286-104.594286zM379.392 273.115429l348.013714 205.677714-44.032 74.313143-348.013714-205.677714zM585.142857 83.968l227.401143 334.262857-70.875429 48.566857-227.986286-333.677714zM843.995429 0l69.12 398.262857-85.138286 14.848-69.12-398.262857z" p-id="9126"></path></svg>